<?xml version="1.0" encoding="UTF-8" standalone="no"?>
<!-- Created with Inkscape (http://www.inkscape.org/) -->

<svg
   version="1.1"
   id="svg2"
   width="317.67139"
   height="177.12813"
   viewBox="0 0 317.67139 177.12813"
   xmlns="http://www.w3.org/2000/svg"
   xmlns:svg="http://www.w3.org/2000/svg">
  <defs
     id="defs6" />
  <g
     id="g10"
     transform="matrix(1.3333333,0,0,-1.3333333,0,177.12813)">
    <g
       id="g12">
      <g
         id="g14"
         transform="matrix(1,0,0,-1,0,132.8461)">
        <path
           d="M 119.707,0.398 V 120.34"
           style="fill:none;stroke:#000000;stroke-width:0.8;stroke-linecap:butt;stroke-linejoin:miter;stroke-miterlimit:4;stroke-dasharray:2.4, 2.4;stroke-dashoffset:0;stroke-opacity:1"
           id="path16" />
      </g>
      <g
         id="g18"
         transform="matrix(1,0,0,-1,0,132.8461)">
        <path
           d="M 0.41,117.266 H 237.844 V 132.45 H 0.41 Z"
           style="fill:#bfbfbf;fill-opacity:1;fill-rule:nonzero;stroke:#000000;stroke-width:0.793701;stroke-linecap:butt;stroke-linejoin:miter;stroke-miterlimit:4;stroke-dasharray:none;stroke-opacity:1"
           id="path20" />
      </g>
      <g
         id="g22"
         transform="matrix(1,0,0,-1,0,132.8461)">
        <path
           d="m 0.398,54.766 h 102.926 v 49.883 H 0.398 Z"
           style="fill:#bfbfbf;fill-opacity:1;fill-rule:nonzero;stroke:#000000;stroke-width:0.793701;stroke-linecap:butt;stroke-linejoin:miter;stroke-miterlimit:4;stroke-dasharray:none;stroke-opacity:1"
           id="path24" />
      </g>
      <g
         id="g26"
         transform="matrix(1,0,0,-1,0,132.8461)">
        <path
           d="m 134.938,54.77 h 102.918 v 49.883 H 134.938 Z"
           style="fill:none;stroke:#000000;stroke-width:0.793701;stroke-linecap:butt;stroke-linejoin:miter;stroke-miterlimit:4;stroke-dasharray:none;stroke-opacity:1"
           id="path28" />
      </g>
      <g
         id="g30"
         transform="matrix(0.656776,0,0,-1,0,132.8461)">
        <path
           d="m 160.657,62.277 h 44.654"
           style="fill:none;stroke:#000000;stroke-width:2.44843;stroke-linecap:butt;stroke-linejoin:miter;stroke-miterlimit:4;stroke-dasharray:none;stroke-opacity:1"
           id="path32" />
      </g>
      <g
         id="g34"
         transform="matrix(-0.656776,0,0,1,0,132.8461)">
        <path
           d="m -157.826,-62.277 -4.24,2.449 v -4.895 z"
           style="fill:#000000;fill-opacity:1;fill-rule:evenodd;stroke:#000000;stroke-width:0.612108;stroke-linecap:butt;stroke-linejoin:miter;stroke-miterlimit:4;stroke-dasharray:none;stroke-opacity:1"
           id="path36" />
      </g>
      <g
         id="g38"
         transform="matrix(0.656776,0,0,-1,0,132.8461)">
        <path
           d="m 160.651,73.617 h 44.655"
           style="fill:none;stroke:#000000;stroke-width:2.44843;stroke-linecap:butt;stroke-linejoin:miter;stroke-miterlimit:4;stroke-dasharray:none;stroke-opacity:1"
           id="path40" />
      </g>
      <g
         id="g42"
         transform="matrix(-0.656776,0,0,1,0,132.8461)">
        <path
           d="m -157.826,-73.617 -4.234,2.449 v -4.898 z"
           style="fill:#000000;fill-opacity:1;fill-rule:evenodd;stroke:#000000;stroke-width:0.612108;stroke-linecap:butt;stroke-linejoin:miter;stroke-miterlimit:4;stroke-dasharray:none;stroke-opacity:1"
           id="path44" />
      </g>
      <g
         id="g46"
         transform="matrix(0.656776,0,0,-1,0,132.8461)">
        <path
           d="m 160.651,85.133 h 44.655"
           style="fill:none;stroke:#000000;stroke-width:2.44843;stroke-linecap:butt;stroke-linejoin:miter;stroke-miterlimit:4;stroke-dasharray:none;stroke-opacity:1"
           id="path48" />
      </g>
      <g
         id="g50"
         transform="matrix(-0.656776,0,0,1,0,132.8461)">
        <path
           d="m -157.826,-85.133 -4.234,2.449 v -4.898 z"
           style="fill:#000000;fill-opacity:1;fill-rule:evenodd;stroke:#000000;stroke-width:0.612108;stroke-linecap:butt;stroke-linejoin:miter;stroke-miterlimit:4;stroke-dasharray:none;stroke-opacity:1"
           id="path52" />
      </g>
      <g
         id="g54"
         transform="matrix(0.656776,0,0,-1,0,132.8461)">
        <path
           d="m 160.651,96.574 h 44.655"
           style="fill:none;stroke:#000000;stroke-width:2.44843;stroke-linecap:butt;stroke-linejoin:miter;stroke-miterlimit:4;stroke-dasharray:none;stroke-opacity:1"
           id="path56" />
      </g>
      <g
         id="g58"
         transform="matrix(-0.656776,0,0,1,0,132.8461)">
        <path
           d="m -157.826,-96.574 -4.234,2.445 v -4.894 z"
           style="fill:#000000;fill-opacity:1;fill-rule:evenodd;stroke:#000000;stroke-width:0.612108;stroke-linecap:butt;stroke-linejoin:miter;stroke-miterlimit:4;stroke-dasharray:none;stroke-opacity:1"
           id="path60" />
      </g>
      <g
         id="g62"
         transform="matrix(1,0,0,-1,0,132.8461)">
        <path
           d="m 23.602,17.691 h 56.52 v 24.535 h -56.52 z"
           style="fill:#bfbfbf;fill-opacity:1;fill-rule:nonzero;stroke:#000000;stroke-width:0.793701;stroke-linecap:butt;stroke-linejoin:miter;stroke-miterlimit:4;stroke-dasharray:none;stroke-opacity:1"
           id="path64" />
      </g>
      <g
         id="g66"
         transform="matrix(1,0,0,-1,0,132.8461)">
        <path
           d="M 91.238,17.688 H 147.75 V 42.223 H 91.238 Z"
           style="fill:#bfbfbf;fill-opacity:1;fill-rule:nonzero;stroke:#000000;stroke-width:0.793701;stroke-linecap:butt;stroke-linejoin:miter;stroke-miterlimit:4;stroke-dasharray:none;stroke-opacity:1"
           id="path68" />
      </g>
      <path
         d="m 119.844,114.76 h 27.477 V 91.01 h -27.477 z"
         style="fill:#ffffff;fill-opacity:1;fill-rule:nonzero;stroke:none"
         id="path70" />
      <g
         id="g72"
         transform="matrix(1,0,0,-1,0,132.8461)">
        <path
           d="M 52.074,51.66 V 42.613"
           style="fill:none;stroke:#000000;stroke-width:1.98425;stroke-linecap:butt;stroke-linejoin:miter;stroke-miterlimit:4;stroke-dasharray:none;stroke-opacity:1"
           id="path74" />
      </g>
      <g
         id="g76"
         transform="matrix(0,-1,-1,0,0,132.8461)">
        <path
           d="m 53.949,-52.074 -3.433,1.984 v -3.969 z"
           style="fill:#000000;fill-opacity:1;fill-rule:evenodd;stroke:#000000;stroke-width:0.496063;stroke-linecap:butt;stroke-linejoin:miter;stroke-miterlimit:4;stroke-dasharray:none;stroke-opacity:1"
           id="path78" />
      </g>
      <g
         id="g80"
         transform="matrix(1,0,0,-1,0,132.8461)">
        <path
           d="M 141.617,51.66 V 42.613"
           style="fill:none;stroke:#000000;stroke-width:1.98425;stroke-linecap:butt;stroke-linejoin:miter;stroke-miterlimit:4;stroke-dasharray:none;stroke-opacity:1"
           id="path82" />
      </g>
      <g
         id="g84"
         transform="matrix(0,-1,-1,0,0,132.8461)">
        <path
           d="m 53.949,-141.617 -3.433,1.984 v -3.969 z"
           style="fill:#000000;fill-opacity:1;fill-rule:evenodd;stroke:#000000;stroke-width:0.496063;stroke-linecap:butt;stroke-linejoin:miter;stroke-miterlimit:4;stroke-dasharray:none;stroke-opacity:1"
           id="path86" />
      </g>
      <g
         id="g88"
         transform="matrix(1,0,0,-1,0,132.8461)">
        <path
           d="M 96.656,51.66 V 42.613"
           style="fill:none;stroke:#000000;stroke-width:1.98425;stroke-linecap:butt;stroke-linejoin:miter;stroke-miterlimit:4;stroke-dasharray:none;stroke-opacity:1"
           id="path90" />
      </g>
      <g
         id="g92"
         transform="matrix(0,-1,-1,0,0,132.8461)">
        <path
           d="m 53.949,-96.656 -3.433,1.984 v -3.969 z"
           style="fill:#000000;fill-opacity:1;fill-rule:evenodd;stroke:#000000;stroke-width:0.496063;stroke-linecap:butt;stroke-linejoin:miter;stroke-miterlimit:4;stroke-dasharray:none;stroke-opacity:1"
           id="path94" />
      </g>
      <path
         d="M 119.832,15.198 H 237.434 V 0.8 H 119.832 Z"
         style="fill:#ffffff;fill-opacity:1;fill-rule:nonzero;stroke:none"
         id="path96" />
      <g
         id="g98"
         transform="matrix(1,0,0,-1,0,132.8461)">
        <path
           d="m 186.496,114.105 v -9.042"
           style="fill:none;stroke:#000000;stroke-width:1.98425;stroke-linecap:butt;stroke-linejoin:miter;stroke-miterlimit:4;stroke-dasharray:none;stroke-opacity:1"
           id="path100" />
      </g>
      <g
         id="g102"
         transform="matrix(0,-1,-1,0,0,132.8461)">
        <path
           d="m 116.395,-186.496 -3.43,1.984 v -3.968 z"
           style="fill:#000000;fill-opacity:1;fill-rule:evenodd;stroke:#000000;stroke-width:0.496063;stroke-linecap:butt;stroke-linejoin:miter;stroke-miterlimit:4;stroke-dasharray:none;stroke-opacity:1"
           id="path104" />
      </g>
      <g
         id="g106"
         transform="matrix(1,0,0,-1,0,132.8461)">
        <path
           d="m 52.078,114.074 v -9.047"
           style="fill:none;stroke:#000000;stroke-width:1.98425;stroke-linecap:butt;stroke-linejoin:miter;stroke-miterlimit:4;stroke-dasharray:none;stroke-opacity:1"
           id="path108" />
      </g>
      <g
         id="g110"
         transform="matrix(0,-1,-1,0,0,132.8461)">
        <path
           d="m 116.363,-52.078 -3.433,1.984 v -3.969 z"
           style="fill:#000000;fill-opacity:1;fill-rule:evenodd;stroke:#000000;stroke-width:0.496063;stroke-linecap:butt;stroke-linejoin:miter;stroke-miterlimit:4;stroke-dasharray:none;stroke-opacity:1"
           id="path112" />
      </g>
      <g
         id="g114"
         transform="matrix(1,0,0,-1,0,132.8461)">
        <path
           d="m 80.395,10.352 h 38.832"
           style="fill:none;stroke:#000000;stroke-width:0.793701;stroke-linecap:butt;stroke-linejoin:miter;stroke-miterlimit:4;stroke-dasharray:2.3811, 2.3811;stroke-dashoffset:0;stroke-opacity:1"
           id="path116" />
      </g>
      <g
         id="g118"
         transform="matrix(-1,0,0,1,0,132.8461)">
        <path
           d="m -78.563,-10.352 -2.746,1.586 v -3.175 z"
           style="fill:#000000;fill-opacity:1;fill-rule:evenodd;stroke:#000000;stroke-width:0.39685;stroke-linecap:butt;stroke-linejoin:miter;stroke-miterlimit:4;stroke-dasharray:none;stroke-opacity:1"
           id="path120" />
      </g>
      <g
         id="g122"
         transform="matrix(1,0,0,-1,0,132.8461)">
        <path
           d="M 158.824,10.344 H 119.992"
           style="fill:none;stroke:#000000;stroke-width:0.793701;stroke-linecap:butt;stroke-linejoin:miter;stroke-miterlimit:4;stroke-dasharray:2.3811, 2.3811;stroke-dashoffset:0;stroke-opacity:1"
           id="path124" />
      </g>
      <g
         id="g126"
         transform="matrix(1,0,0,-1,0,132.8461)">
        <path
           d="m 160.656,10.344 -2.746,1.59 V 8.758 Z"
           style="fill:#000000;fill-opacity:1;fill-rule:evenodd;stroke:#000000;stroke-width:0.39685;stroke-linecap:butt;stroke-linejoin:miter;stroke-miterlimit:4;stroke-dasharray:none;stroke-opacity:1"
           id="path128" />
      </g>
      <text
         xml:space="preserve"
         transform="matrix(1,0,0,-1,35.431578,105.62047)"
         style="font-variant:normal;font-weight:normal;font-size:9.6px;font-family:'Times New Roman';-inkscape-font-specification:TimesNewRomanPSMT;writing-mode:lr-tb;fill:#000000;fill-opacity:1;fill-rule:nonzero;stroke:none"
         id="text158"><tspan
           x="0 5.3376002 8.5344 13.3344 18.134399 20.7936 25.0464"
           y="0"
           id="tspan130">Problem</tspan><tspan
           x="-6.3937535 -3.1969535 1.6030464 4.7998462 12.259047 17.059046 19.718246 23.971046 26.630247 29.289446 34.089447"
           y="12"
           id="tspan132">formulation</tspan><tspan
           x="61.317551 66.655151 70.907951 74.104752 78.357552 85.81675 90.06955 92.728752 96.981552 100.17835 103.91275"
           y="-0.96373439"
           id="tspan134">Parameters/</tspan><tspan
           x="69.839424 74.639427 79.439423 82.098625 84.757828 89.557823 94.357826"
           y="11.036266"
           id="tspan136">options</tspan><tspan
           x="15.48529 20.28529 23.48209 27.73489 35.194088 39.994091 44.246891 49.04689 51.706089 56.506088 59.165291"
           y="36.779125"
           id="tspan138">grampc_init</tspan><tspan
           x="5.3602848 10.160285 13.357085 17.609884 25.069084 29.869085 34.121883 38.921886 42.656284 46.909084 49.568283 54.368286 59.168285"
           y="48.779125"
           id="tspan140">grampc_setopt</tspan><tspan
           x="-6.9022174 -2.1022177 1.0945824 5.3473825 12.806582 17.606583 22.406582 27.206583 30.940983 35.193783 37.852982 42.652981 46.905781 50.102581 54.355381"
           y="60.779125"
           id="tspan142">grampx_setparam</tspan><tspan
           x="15.466531 20.266531 23.463331 27.716131 35.175331 39.97533 44.22813 49.02813 52.22493 57.024933"
           y="72.779129"
           id="tspan144">grampc_run</tspan><tspan
           x="103.15932 107.95933 111.15613 115.40893 122.86813 127.66812 131.92093 136.72093 139.38013 144.18013 146.83932 149.49852 154.29852 160.69212 168.15132 172.40413"
           y="36.422794"
           id="tspan146">grampc_init_Cmex</tspan><tspan
           x="103.15932 107.95933 111.15613 115.40893 122.86813 127.66812 131.92093 136.72093 140.45532 144.70813 147.36732 152.16733 156.96733 159.62653 164.42653 170.82013 178.27933 182.53212"
           y="48.422794"
           id="tspan148">grampc_setopt_Cmex</tspan><tspan
           x="103.15932 107.95933 111.15613 115.40893 122.86813 127.66812 132.46812 137.26813 141.00252 145.25533 147.91452 152.71452 156.96733 160.16412 164.41693 171.87613 176.67613 183.06972 190.52893 194.78172"
           y="60.422794"
           id="tspan150">grampx_setparam_Cmex</tspan><tspan
           x="103.15932 107.95933 111.15613 115.40893 122.86813 127.66812 131.92093 136.72093 139.91772 144.71773 149.51773 154.31772 160.71132 168.17053 172.42332"
           y="72.422791"
           id="tspan152">grampc_run_Cmex</tspan><tspan
           x="3.3137665 9.1697664 13.969767 18.222567 22.475367 27.275366 29.934566 34.187366 38.987366 41.646568 45.899368 48.299366 51.496166 60.030567 64.283363 66.913765 69.572968 73.825768 78.625763 81.284966 86.622566 89.281769 96.740967 101.54097 104.20016 106.83057 111.63057 116.43056 118.83057 121.23057 126.03056 131.36816 136.16817 140.42096 144.67377 148.92656 151.32657 153.72656 156.12657 158.52657 160.92656"
           y="99.937729"
           id="tspan154">Executable (Matlab/Simulink, dSpace, ...)</tspan><tspan
           x="54.76873 61.162331 63.562328 67.815132 72.615128 77.415131 87.379929 95.91433 100.16713 102.82633 105.48553 109.73833"
           y="-19.319885"
           id="tspan156">C codeMatlab</tspan></text>
    </g>
  </g>
</svg>
