<?xml version="1.0" encoding="UTF-8" standalone="no"?>
<!-- Created with Inkscape (http://www.inkscape.org/) -->

<svg
   version="1.1"
   id="svg510"
   width="513.23785"
   height="142.47841"
   viewBox="0 0 513.23785 142.47841"
   sodipodi:docname="ls_adapt.pdf"
   inkscape:export-filename="ls_adapt.svg"
   inkscape:export-xdpi="96"
   inkscape:export-ydpi="96"
   xmlns:inkscape="http://www.inkscape.org/namespaces/inkscape"
   xmlns:sodipodi="http://sodipodi.sourceforge.net/DTD/sodipodi-0.dtd"
   xmlns="http://www.w3.org/2000/svg"
   xmlns:svg="http://www.w3.org/2000/svg">
  <defs
     id="defs514" />
  <sodipodi:namedview
     id="namedview512"
     pagecolor="#ffffff"
     bordercolor="#000000"
     borderopacity="0.25"
     inkscape:showpageshadow="2"
     inkscape:pageopacity="0.0"
     inkscape:pagecheckerboard="0"
     inkscape:deskcolor="#d1d1d1"
     showgrid="false" />
  <g
     id="g518"
     inkscape:groupmode="layer"
     inkscape:label="Page 1"
     transform="matrix(1.3333333,0,0,-1.3333333,0,142.47841)">
    <g
       id="g520">
      <g
         id="g522"
         transform="matrix(1,0,0,-1,0,106.85881)">
        <path
           d="m 126.777,48.313 v 54.988"
           style="fill:none;stroke:#000000;stroke-width:0.8;stroke-linecap:butt;stroke-linejoin:miter;stroke-miterlimit:4;stroke-dasharray:0.8, 1.6;stroke-dashoffset:0;stroke-opacity:1"
           id="path524" />
      </g>
      <g
         id="g526"
         transform="matrix(1,0,0,-1,0,106.85881)">
        <path
           d="m 77.09,41.754 v 61.367"
           style="fill:none;stroke:#000000;stroke-width:0.8;stroke-linecap:butt;stroke-linejoin:miter;stroke-miterlimit:4;stroke-dasharray:0.8, 1.6;stroke-dashoffset:0;stroke-opacity:1"
           id="path528" />
      </g>
      <g
         id="g530"
         transform="matrix(1,0,0,-1,0,106.85881)">
        <path
           d="m 27.402,97.496 v 6.211"
           style="fill:none;stroke:#000000;stroke-width:0.793701;stroke-linecap:butt;stroke-linejoin:miter;stroke-miterlimit:4;stroke-dasharray:none;stroke-opacity:1"
           id="path532" />
      </g>
      <g
         id="g534"
         transform="matrix(1,0,0,-1,0,106.85881)">
        <path
           d="m 77.09,97.496 v 6.211"
           style="fill:none;stroke:#000000;stroke-width:0.793701;stroke-linecap:butt;stroke-linejoin:miter;stroke-miterlimit:4;stroke-dasharray:none;stroke-opacity:1"
           id="path536" />
      </g>
      <g
         id="g538"
         transform="matrix(1,0,0,-1,0,106.85881)">
        <path
           d="m 126.777,97.496 v 6.211"
           style="fill:none;stroke:#000000;stroke-width:0.793701;stroke-linecap:butt;stroke-linejoin:miter;stroke-miterlimit:4;stroke-dasharray:none;stroke-opacity:1"
           id="path540" />
      </g>
      <g
         id="g542"
         transform="matrix(1,0,0,-1,0,106.85881)">
        <path
           d="M 27.402,11.047 V 99.852"
           style="fill:none;stroke:#000000;stroke-width:0.8;stroke-linecap:butt;stroke-linejoin:miter;stroke-miterlimit:4;stroke-dasharray:0.8, 1.6;stroke-dashoffset:0;stroke-opacity:1"
           id="path544" />
      </g>
      <g
         id="g546"
         transform="matrix(1,0,0,-1,0,106.85881)">
        <path
           d="m 4.348,7.496 v 90"
           style="fill:none;stroke:#000000;stroke-width:0.8;stroke-linecap:butt;stroke-linejoin:miter;stroke-miterlimit:4;stroke-dasharray:none;stroke-opacity:1"
           id="path548" />
      </g>
      <g
         id="g550"
         transform="matrix(0,1,1,0,0,106.85881)">
        <path
           d="m -5.648,4.348 -2.77,1.601 V 2.75 Z"
           style="fill:#000000;fill-opacity:1;fill-rule:evenodd;stroke:#000000;stroke-width:0.4;stroke-linecap:butt;stroke-linejoin:miter;stroke-miterlimit:4;stroke-dasharray:none;stroke-opacity:1"
           id="path552" />
      </g>
      <g
         id="g554"
         transform="matrix(1,0,0,-1,0,106.85881)">
        <path
           d="m 4.5,97.059 h 6.059"
           style="fill:none;stroke:#000000;stroke-width:0.8;stroke-linecap:butt;stroke-linejoin:miter;stroke-miterlimit:4;stroke-dasharray:none;stroke-opacity:1"
           id="path556" />
      </g>
      <g
         id="g558"
         transform="matrix(1,0,0,-1,0,106.85881)">
        <path
           d="M 16.559,97.496 H 181.973"
           style="fill:none;stroke:#000000;stroke-width:0.793701;stroke-linecap:butt;stroke-linejoin:miter;stroke-miterlimit:4;stroke-dasharray:none;stroke-opacity:1"
           id="path560" />
      </g>
      <g
         id="g562"
         transform="matrix(1,0,0,-1,0,106.85881)">
        <path
           d="m 183.805,97.496 -2.746,1.59 V 95.91 Z"
           style="fill:#000000;fill-opacity:1;fill-rule:evenodd;stroke:#000000;stroke-width:0.39685;stroke-linecap:butt;stroke-linejoin:miter;stroke-miterlimit:4;stroke-dasharray:none;stroke-opacity:1"
           id="path564" />
      </g>
      <g
         id="g566"
         transform="matrix(1,0,0,-1,0,106.85881)">
        <path
           d="m 14.348,94.055 c -0.535,0.039 -1.055,0.261 -1.45,0.629 -0.39,0.363 -0.656,0.867 -0.738,1.394 -0.07,0.485 0.004,0.977 0.07,1.461 0.067,0.484 0.122,0.981 0.008,1.453 -0.113,0.481 -0.406,0.918 -0.804,1.207 -0.399,0.293 -0.903,0.434 -1.395,0.395"
           style="fill:none;stroke:#000000;stroke-width:0.8;stroke-linecap:butt;stroke-linejoin:miter;stroke-miterlimit:4;stroke-dasharray:none;stroke-opacity:1"
           id="path568" />
      </g>
      <g
         id="g570"
         transform="matrix(1,0,0,-1,0,106.85881)">
        <path
           d="m 17.359,94.055 c -0.535,0.039 -1.054,0.261 -1.449,0.629 -0.394,0.363 -0.66,0.867 -0.738,1.394 -0.074,0.485 0.004,0.977 0.07,1.461 0.067,0.484 0.121,0.981 0.008,1.453 -0.117,0.481 -0.406,0.918 -0.805,1.207 -0.398,0.293 -0.902,0.434 -1.394,0.395"
           style="fill:none;stroke:#000000;stroke-width:0.8;stroke-linecap:butt;stroke-linejoin:miter;stroke-miterlimit:4;stroke-dasharray:none;stroke-opacity:1"
           id="path572" />
      </g>
      <g
         id="g574"
         transform="matrix(1,0,0,-1,0,106.85881)">
        <path
           d="m 27.402,11.113 c 37.266,40.66 99.375,37.266 99.375,37.266"
           style="fill:none;stroke:#000000;stroke-width:0.8;stroke-linecap:round;stroke-linejoin:miter;stroke-miterlimit:4;stroke-dasharray:none;stroke-opacity:1"
           id="path576" />
      </g>
      <g
         id="g578"
         transform="matrix(1,0,0,-0.797056,0,106.85881)">
        <path
           d="m 124.547,60.668 c 0.019,-1.51 1.012,-2.711 2.211,-2.681 1.199,0.024 2.156,1.264 2.137,2.769 -0.02,1.509 -1.012,2.71 -2.211,2.681 -1.2,-0.025 -2.153,-1.26 -2.137,-2.76"
           style="fill:#828282;fill-opacity:1;fill-rule:nonzero;stroke:#828282;stroke-width:1.27003;stroke-linecap:round;stroke-linejoin:miter;stroke-miterlimit:4;stroke-dasharray:none;stroke-opacity:1"
           id="path580" />
      </g>
      <g
         id="g582"
         transform="matrix(1,0,0,-1,0,106.85881)">
        <path
           d="m 46.035,45.09 c 67.188,33.445 123.801,1.308 123.801,1.308"
           style="fill:none;stroke:#000000;stroke-width:0.793701;stroke-linecap:butt;stroke-linejoin:miter;stroke-miterlimit:4;stroke-dasharray:3.1748, 1.5874;stroke-dashoffset:0;stroke-opacity:1"
           id="path584" />
      </g>
      <g
         id="g586"
         transform="matrix(1,0,0,-1,0,106.85881)">
        <path
           d="m 45.918,46.043 v 57.18"
           style="fill:none;stroke:#000000;stroke-width:0.793701;stroke-linecap:butt;stroke-linejoin:miter;stroke-miterlimit:4;stroke-dasharray:0.793701, 1.5874;stroke-dashoffset:0;stroke-opacity:1"
           id="path588" />
      </g>
      <g
         id="g590"
         transform="matrix(1,0,0,-1,0,106.85881)">
        <path
           d="m 168.586,47.789 v 54.91"
           style="fill:none;stroke:#000000;stroke-width:0.8;stroke-linecap:butt;stroke-linejoin:miter;stroke-miterlimit:4;stroke-dasharray:0.8, 1.6;stroke-dashoffset:0;stroke-opacity:1"
           id="path592" />
      </g>
      <g
         id="g594"
         transform="matrix(1,0,0,-1,0,106.85881)">
        <path
           d="m 101.82,60.438 v 43.113"
           style="fill:none;stroke:#000000;stroke-width:0.8;stroke-linecap:butt;stroke-linejoin:miter;stroke-miterlimit:4;stroke-dasharray:0.8, 1.6;stroke-dashoffset:0;stroke-opacity:1"
           id="path596" />
      </g>
      <g
         id="g598"
         transform="matrix(1,0,0,-0.797056,0,106.85881)">
        <path
           d="m 105.305,75.801 c 0.019,-1.509 1.008,-2.71 2.207,-2.68 1.203,0.024 2.16,1.264 2.136,2.769 -0.019,1.509 -1.007,2.71 -2.207,2.68 -1.199,-0.024 -2.156,-1.259 -2.14,-2.759"
           style="fill:#828282;fill-opacity:1;fill-rule:nonzero;stroke:#828282;stroke-width:1.27003;stroke-linecap:round;stroke-linejoin:miter;stroke-miterlimit:4;stroke-dasharray:none;stroke-opacity:1"
           id="path600" />
      </g>
      <g
         id="g602"
         transform="matrix(1,0,0,-1,0,106.85881)">
        <path
           d="m 45.918,97.496 v 6.211"
           style="fill:none;stroke:#000000;stroke-width:0.793701;stroke-linecap:butt;stroke-linejoin:miter;stroke-miterlimit:4;stroke-dasharray:none;stroke-opacity:1"
           id="path604" />
      </g>
      <g
         id="g606"
         transform="matrix(1,0,0,-1,0,106.85881)">
        <path
           d="m 101.816,97.496 v 6.211"
           style="fill:none;stroke:#000000;stroke-width:0.793701;stroke-linecap:butt;stroke-linejoin:miter;stroke-miterlimit:4;stroke-dasharray:none;stroke-opacity:1"
           id="path608" />
      </g>
      <g
         id="g610"
         transform="matrix(1,0,0,-1,0,106.85881)">
        <path
           d="m 168.586,97.496 v 6.211"
           style="fill:none;stroke:#000000;stroke-width:0.793701;stroke-linecap:butt;stroke-linejoin:miter;stroke-miterlimit:4;stroke-dasharray:none;stroke-opacity:1"
           id="path612" />
      </g>
      <path
         d="m 23.391,6.499 h 147.84 V 1.827 H 23.391 Z"
         style="fill:#ffffff;fill-opacity:1;fill-rule:nonzero;stroke:none"
         id="path614" />
      <path
         d="m 183.273,4.445 v 0.078 l -0.011,0.066 v 0.125 l -0.016,0.133 -0.012,0.117 -0.027,0.114 -0.019,0.105 -0.032,0.105 -0.035,0.098 -0.039,0.094 -0.039,0.086 -0.047,0.09 -0.051,0.074 -0.047,0.078 -0.046,0.066 -0.172,0.172 -0.059,0.051 -0.066,0.047 -0.071,0.047 -0.066,0.039 -0.059,0.027 -0.074,0.039 -0.066,0.02 -0.071,0.027 -0.132,0.039 -0.067,0.012 -0.078,0.008 -0.066,0.011 h -0.133 c -1.309,0 -2.574,-1.363 -2.574,-2.707 0,-0.894 0.574,-1.613 1.554,-1.613 l 0.02,0.199 c -0.578,0 -0.863,0.434 -0.863,1.047 0,0.473 0.25,1.5 0.554,1.989 0.453,0.699 0.961,0.882 1.297,0.882 0.949,0 0.949,-1.257 0.949,-2.007 0,-0.344 0,-0.903 0.02,-1.063 -0.844,-0.742 -1.582,-0.848 -1.957,-0.848 l -0.02,-0.199 c 0.594,0 1.286,0.211 2.016,0.797 0.125,-0.512 0.441,-0.797 0.875,-0.797 0.5,0 0.797,0.516 0.797,0.672 0,0.066 -0.059,0.094 -0.117,0.094 -0.067,0 -0.094,-0.028 -0.125,-0.094 -0.16,-0.473 -0.508,-0.473 -0.528,-0.473 -0.297,0 -0.297,0.75 -0.297,0.981 0,0.203 0,0.223 0.098,0.336 0.891,1.125 1.094,2.238 1.094,2.246 0,0.019 -0.012,0.098 -0.117,0.098 -0.094,0 -0.094,-0.032 -0.145,-0.204 -0.172,-0.605 -0.488,-1.336 -0.93,-1.89 z"
         style="fill:#000000;fill-opacity:1;fill-rule:nonzero;stroke:none"
         id="path616" />
      <path
         d="M 4.07,5.968 V 6.113 L 4.059,6.257 V 6.402 L 4.051,6.546 4.039,6.679 4.031,6.824 4.02,6.968 4.004,7.113 3.984,7.246 3.953,7.39 3.926,7.527 3.887,7.667 3.848,7.804 3.801,7.937 3.742,8.074 3.715,8.14 3.684,8.206 C 3.242,9.117 2.457,9.273 2.055,9.273 1.488,9.273 0.785,9.031 0.391,8.14 0.086,7.476 0.039,6.738 0.039,5.968 0.039,5.249 0.074,4.394 0.469,3.667 0.883,2.89 1.582,2.706 2.043,2.706 v 0.2 c -0.375,0 -0.93,0.242 -1.102,1.164 -0.105,0.574 -0.105,1.449 -0.105,2.015 0,0.614 0,1.239 0.074,1.758 0.184,1.133 0.895,1.219 1.133,1.219 0.316,0 0.949,-0.172 1.133,-1.113 C 3.273,7.41 3.273,6.691 3.273,6.085 3.273,5.367 3.273,4.722 3.168,4.109 3.023,3.195 2.477,2.906 2.043,2.906 v -0.2 c 0.52,0 1.25,0.2 1.672,1.102 C 4.02,4.472 4.07,5.21 4.07,5.968 Z"
         style="fill:#000000;fill-opacity:1;fill-rule:nonzero;stroke:none"
         id="path618" />
      <path
         d="m 11.906,106.038 v 0.04 l 0.008,0.011 v 0.028 l 0.008,0.011 v 0.028 l 0.012,0.007 v 0.012 c 0,0.008 0,0.094 -0.118,0.094 -0.093,0 -0.105,-0.027 -0.14,-0.191 l -0.559,-2.207 c -1.515,-0.047 -2.929,-1.317 -2.929,-2.61 0,-0.914 0.675,-1.672 1.835,-1.73 l 0.047,0.203 c -0.566,0.027 -1.257,0.363 -1.257,1.324 0,1.141 0.828,2.484 2.246,2.602 L 10.07,99.734 10.023,99.531 C 9.957,99.234 9.879,98.925 9.801,98.628 9.695,98.179 9.602,97.812 9.602,97.785 c 0,-0.098 0.066,-0.098 0.113,-0.098 0.039,0 0.058,0 0.086,0.031 0.031,0.02 0.078,0.25 0.105,0.383 l 0.367,1.43 0.047,0.203 0.989,3.926 c 0.73,-0.028 1.277,-0.473 1.277,-1.317 0,-1.121 -0.824,-2.496 -2.266,-2.609 l -0.047,-0.203 c 1.543,0.047 2.926,1.336 2.926,2.613 0,0.758 -0.496,1.629 -1.832,1.727 z"
         style="fill:#000000;fill-opacity:1;fill-rule:nonzero;stroke:none"
         id="path620" />
      <path
         d="m 16.59,97.351 v 0.02 H 16.578 V 97.39 H 16.57 v 0.012 l -0.007,0.008 v 0.007 h -0.012 v 0.012 h -0.008 v 0.008 l -0.012,0.012 h -0.008 v 0.007 l -0.031,0.032 v 0.008 h -0.008 l -0.019,0.019 -0.012,0.008 v 0.012 h -0.008 l -0.007,0.007 v 0.012 l -0.012,0.008 c -1.199,1.203 -1.508,3.008 -1.508,4.465 0,1.66 0.367,3.332 1.547,4.523 0.125,0.113 0.125,0.133 0.125,0.16 0,0.071 -0.039,0.098 -0.098,0.098 -0.094,0 -0.957,-0.652 -1.523,-1.863 -0.481,-1.055 -0.606,-2.11 -0.606,-2.918 0,-0.739 0.106,-1.899 0.633,-2.977 0.574,-1.179 1.402,-1.793 1.496,-1.793 0.059,0 0.098,0.028 0.098,0.094 z"
         style="fill:#000000;fill-opacity:1;fill-rule:nonzero;stroke:none"
         id="path622" />
      <path
         d="m 21.707,101.894 v 0.144 l -0.012,0.067 v 0.058 l -0.019,0.133 -0.008,0.114 -0.027,0.117 -0.02,0.105 -0.031,0.106 -0.039,0.097 -0.035,0.094 -0.039,0.086 -0.047,0.086 -0.039,0.078 -0.059,0.078 -0.047,0.067 -0.058,0.058 -0.059,0.055 -0.059,0.059 -0.054,0.046 -0.071,0.051 -0.066,0.047 -0.055,0.039 -0.07,0.027 -0.066,0.04 -0.079,0.019 -0.066,0.027 -0.133,0.039 -0.066,0.012 -0.078,0.008 -0.067,0.012 h -0.136 c -1.305,0 -2.571,-1.364 -2.571,-2.711 0,-0.891 0.574,-1.61 1.555,-1.61 l 0.019,0.2 c -0.578,0 -0.863,0.433 -0.863,1.046 0,0.473 0.246,1.497 0.555,1.989 0.453,0.699 0.961,0.883 1.297,0.883 0.949,0 0.949,-1.258 0.949,-2.008 0,-0.344 0,-0.903 0.02,-1.067 -0.844,-0.738 -1.583,-0.843 -1.958,-0.843 l -0.019,-0.2 c 0.605,0 1.285,0.211 2.016,0.797 0.125,-0.511 0.441,-0.797 0.875,-0.797 0.496,0 0.796,0.516 0.796,0.672 0,0.067 -0.058,0.094 -0.117,0.094 -0.058,0 -0.086,-0.027 -0.113,-0.094 -0.176,-0.472 -0.52,-0.472 -0.539,-0.472 -0.297,0 -0.297,0.75 -0.297,0.98 0,0.199 0,0.219 0.094,0.336 0.902,1.121 1.097,2.238 1.097,2.246 0,0.02 -0.011,0.098 -0.117,0.098 -0.097,0 -0.097,-0.031 -0.133,-0.203 -0.183,-0.606 -0.492,-1.336 -0.941,-1.891 z"
         style="fill:#000000;fill-opacity:1;fill-rule:nonzero;stroke:none"
         id="path624" />
      <path
         d="m 26.055,102.027 v 0.297 l -0.008,0.164 -0.012,0.172 -0.019,0.175 -0.02,0.18 -0.027,0.191 -0.028,0.196 -0.039,0.191 -0.039,0.199 -0.117,0.407 -0.066,0.199 -0.075,0.203 -0.039,0.105 -0.05,0.106 -0.036,0.094 -0.05,0.105 c -0.575,1.172 -1.399,1.797 -1.496,1.797 -0.059,0 -0.098,-0.039 -0.098,-0.098 0,-0.027 0,-0.047 0.184,-0.218 0.941,-0.942 1.488,-2.469 1.488,-4.465 0,-1.633 -0.356,-3.313 -1.547,-4.512 -0.125,-0.113 -0.125,-0.133 -0.125,-0.164 0,-0.055 0.039,-0.094 0.098,-0.094 0.097,0 0.961,0.641 1.527,1.86 0.48,1.046 0.594,2.113 0.594,2.91 z"
         style="fill:#000000;fill-opacity:1;fill-rule:nonzero;stroke:none"
         id="path626" />
      <path
         d="m 121.051,26.07 h 11 v -7.602 h -11 z"
         style="fill:#ffffff;fill-opacity:1;fill-rule:nonzero;stroke:none"
         id="path628" />
      <path
         d="m 71.852,26.07 h 11 v -7.602 h -11 z"
         style="fill:#ffffff;fill-opacity:1;fill-rule:nonzero;stroke:none"
         id="path630" />
      <path
         d="m 21.551,26.062 h 11 v -7.598 h -11 z"
         style="fill:#ffffff;fill-opacity:1;fill-rule:nonzero;stroke:none"
         id="path632" />
      <path
         d="m 26.906,22.691 v 0.078 l -0.011,0.066 v 0.125 l -0.02,0.133 -0.008,0.117 -0.031,0.114 -0.02,0.105 -0.027,0.106 -0.078,0.195 -0.035,0.086 -0.051,0.086 -0.047,0.074 -0.047,0.078 -0.051,0.067 -0.054,0.058 -0.117,0.117 -0.059,0.047 -0.133,0.094 -0.066,0.039 -0.059,0.031 -0.078,0.035 -0.066,0.02 -0.067,0.031 -0.133,0.039 -0.07,0.008 -0.074,0.012 -0.066,0.008 h -0.137 c -1.305,0 -2.571,-1.364 -2.571,-2.707 0,-0.895 0.575,-1.614 1.555,-1.614 l 0.02,0.203 c -0.578,0 -0.867,0.43 -0.867,1.047 0,0.469 0.25,1.496 0.558,1.985 0.449,0.703 0.961,0.882 1.297,0.882 0.949,0 0.949,-1.257 0.949,-2.003 0,-0.348 0,-0.903 0.02,-1.067 -0.844,-0.738 -1.586,-0.844 -1.957,-0.844 l -0.02,-0.203 c 0.594,0 1.285,0.211 2.016,0.797 0.125,-0.508 0.441,-0.797 0.871,-0.797 0.5,0 0.797,0.52 0.797,0.672 0,0.067 -0.055,0.098 -0.114,0.098 -0.066,0 -0.097,-0.031 -0.125,-0.098 -0.164,-0.469 -0.507,-0.469 -0.527,-0.469 -0.297,0 -0.297,0.746 -0.297,0.977 0,0.203 0,0.223 0.094,0.336 0.895,1.125 1.094,2.238 1.094,2.246 0,0.02 -0.008,0.098 -0.114,0.098 -0.097,0 -0.097,-0.028 -0.144,-0.203 -0.172,-0.602 -0.488,-1.333 -0.93,-1.891 z"
         style="fill:#000000;fill-opacity:1;fill-rule:nonzero;stroke:none"
         id="path634" />
      <path
         d="m 30.695,23.249 v 0.086 l -0.007,0.008 v 0.039 l -0.012,0.012 v 0.008 l -0.02,0.019 h -0.008 l -0.007,0.008 H 30.602 L 30.59,23.441 H 30.496 C 30.063,23.019 29.457,23.007 29.18,23.007 v -0.238 c 0.164,0 0.605,0 0.968,0.191 v -3.406 c 0,-0.223 0,-0.308 -0.66,-0.308 h -0.261 v -0.243 c 0.125,0.012 0.953,0.032 1.191,0.032 0.211,0 1.055,-0.02 1.199,-0.032 v 0.243 h -0.25 c -0.672,0 -0.672,0.085 -0.672,0.308 z"
         style="fill:#000000;fill-opacity:1;fill-rule:nonzero;stroke:none"
         id="path636" />
      <path
         d="m 76.66,22.687 v 0.074 l -0.008,0.067 v 0.125 l -0.019,0.136 -0.008,0.114 -0.031,0.117 -0.02,0.105 -0.027,0.106 -0.039,0.093 -0.039,0.098 -0.039,0.086 -0.047,0.086 -0.047,0.078 -0.051,0.078 -0.047,0.067 -0.172,0.171 -0.058,0.047 -0.067,0.051 -0.066,0.047 -0.066,0.039 -0.059,0.027 -0.078,0.039 -0.067,0.02 -0.066,0.027 -0.066,0.02 -0.071,0.019 -0.066,0.008 -0.074,0.012 -0.071,0.008 h -0.132 c -1.305,0 -2.575,-1.364 -2.575,-2.707 0,-0.891 0.579,-1.614 1.555,-1.614 l 0.02,0.204 c -0.575,0 -0.864,0.433 -0.864,1.046 0,0.469 0.25,1.497 0.559,1.989 0.449,0.699 0.957,0.883 1.293,0.883 0.953,0 0.953,-1.258 0.953,-2.008 0,-0.344 0,-0.903 0.02,-1.067 -0.848,-0.738 -1.586,-0.843 -1.961,-0.843 l -0.02,-0.204 c 0.598,0 1.289,0.215 2.02,0.797 0.121,-0.507 0.441,-0.797 0.871,-0.797 0.5,0 0.797,0.52 0.797,0.672 0,0.071 -0.059,0.098 -0.114,0.098 -0.07,0 -0.097,-0.027 -0.125,-0.098 -0.164,-0.468 -0.511,-0.468 -0.527,-0.468 -0.301,0 -0.301,0.75 -0.301,0.98 0,0.199 0,0.219 0.098,0.336 0.89,1.121 1.094,2.234 1.094,2.246 0,0.02 -0.008,0.094 -0.114,0.094 -0.097,0 -0.097,-0.028 -0.144,-0.199 -0.176,-0.606 -0.492,-1.336 -0.934,-1.891 z"
         style="fill:#000000;fill-opacity:1;fill-rule:nonzero;stroke:none"
         id="path638" />
      <path
         d="M 81.586,20.218 H 81.367 C 81.336,20.066 81.27,19.671 81.184,19.605 81.137,19.566 80.617,19.566 80.52,19.566 h -1.227 c 0.699,0.625 0.941,0.805 1.344,1.121 0.488,0.394 0.949,0.809 0.949,1.441 0,0.805 -0.711,1.305 -1.566,1.305 -0.825,0 -1.391,-0.586 -1.391,-1.199 0,-0.336 0.289,-0.375 0.355,-0.375 0.164,0 0.356,0.117 0.356,0.355 0,0.125 -0.047,0.356 -0.395,0.356 0.211,0.472 0.664,0.625 0.981,0.625 0.66,0 1.015,-0.52 1.015,-1.067 0,-0.574 -0.421,-1.035 -0.632,-1.277 l -1.614,-1.594 c -0.066,-0.058 -0.066,-0.066 -0.066,-0.258 h 2.754 z"
         style="fill:#000000;fill-opacity:1;fill-rule:nonzero;stroke:none"
         id="path640" />
      <path
         d="m 126.207,22.82 v 0.078 l -0.008,0.066 v 0.125 l -0.019,0.133 -0.012,0.117 -0.027,0.114 -0.02,0.105 -0.027,0.105 -0.039,0.098 -0.039,0.094 -0.039,0.09 -0.047,0.086 -0.047,0.074 -0.051,0.078 -0.047,0.066 -0.058,0.059 -0.055,0.059 -0.059,0.054 -0.058,0.051 -0.133,0.094 -0.067,0.039 -0.058,0.027 -0.078,0.039 -0.067,0.02 -0.066,0.031 -0.066,0.02 -0.071,0.015 -0.066,0.012 -0.078,0.008 -0.067,0.011 h -0.133 c -1.304,0 -2.574,-1.363 -2.574,-2.707 0,-0.894 0.578,-1.613 1.555,-1.613 l 0.019,0.199 c -0.574,0 -0.863,0.434 -0.863,1.047 0,0.473 0.25,1.5 0.559,1.989 0.449,0.699 0.957,0.882 1.293,0.882 0.953,0 0.953,-1.257 0.953,-2.004 0,-0.347 0,-0.902 0.019,-1.066 -0.847,-0.738 -1.586,-0.848 -1.961,-0.848 l -0.019,-0.199 c 0.598,0 1.289,0.211 2.016,0.797 0.125,-0.508 0.441,-0.797 0.875,-0.797 0.5,0 0.796,0.52 0.796,0.672 0,0.066 -0.058,0.094 -0.113,0.094 -0.07,0 -0.097,-0.028 -0.125,-0.094 -0.164,-0.473 -0.512,-0.473 -0.531,-0.473 -0.297,0 -0.297,0.75 -0.297,0.981 0,0.203 0,0.223 0.098,0.336 0.89,1.125 1.093,2.238 1.093,2.246 0,0.019 -0.007,0.098 -0.113,0.098 -0.097,0 -0.097,-0.032 -0.144,-0.204 -0.176,-0.605 -0.493,-1.332 -0.934,-1.89 z"
         style="fill:#000000;fill-opacity:1;fill-rule:nonzero;stroke:none"
         id="path642" />
      <path
         d="m 129.586,21.359 h 0.098 l 0.039,-0.008 h 0.047 l 0.046,-0.008 0.039,-0.019 0.047,-0.012 0.157,-0.078 0.039,-0.016 0.035,-0.031 0.031,-0.027 0.039,-0.032 0.027,-0.035 0.028,-0.031 0.031,-0.039 0.02,-0.035 0.027,-0.039 0.019,-0.051 0.059,-0.141 0.02,-0.051 0.007,-0.054 0.012,-0.051 0.008,-0.055 0.008,-0.07 0.011,-0.055 v -0.136 c 0,-0.825 -0.48,-1.075 -0.875,-1.075 -0.257,0 -0.851,0.078 -1.132,0.469 0.316,0.02 0.386,0.231 0.386,0.375 0,0.211 -0.156,0.367 -0.367,0.367 -0.183,0 -0.375,-0.117 -0.375,-0.386 0,-0.622 0.692,-1.036 1.508,-1.036 0.934,0 1.566,0.625 1.566,1.286 0,0.527 -0.421,1.046 -1.164,1.199 0.703,0.25 0.961,0.75 0.961,1.164 0,0.527 -0.605,0.922 -1.351,0.922 -0.742,0 -1.309,-0.367 -1.309,-0.895 0,-0.23 0.145,-0.355 0.348,-0.355 0.211,0 0.336,0.156 0.336,0.336 0,0.191 -0.125,0.336 -0.336,0.347 0.23,0.297 0.691,0.375 0.941,0.375 0.297,0 0.719,-0.156 0.719,-0.73 0,-0.281 -0.086,-0.586 -0.27,-0.797 -0.211,-0.25 -0.402,-0.27 -0.738,-0.289 -0.164,-0.008 -0.183,-0.008 -0.211,-0.02 -0.012,0 -0.066,-0.007 -0.066,-0.086 0,-0.097 0.054,-0.097 0.172,-0.097 z"
         style="fill:#000000;fill-opacity:1;fill-rule:nonzero;stroke:none"
         id="path644" />
      <path
         d="m 135.777,63.324 v 0.074 l -0.007,0.07 v 0.125 l -0.02,0.133 -0.012,0.113 -0.027,0.117 -0.02,0.106 -0.027,0.105 -0.039,0.098 -0.039,0.094 -0.039,0.086 -0.047,0.086 -0.051,0.078 -0.047,0.078 -0.047,0.066 -0.058,0.059 -0.059,0.055 -0.054,0.058 -0.059,0.047 -0.066,0.051 -0.067,0.047 -0.07,0.039 -0.133,0.066 -0.066,0.02 -0.071,0.027 -0.132,0.039 -0.067,0.012 -0.078,0.008 -0.066,0.011 h -0.133 c -1.309,0 -2.574,-1.363 -2.574,-2.707 0,-0.894 0.574,-1.613 1.554,-1.613 l 0.02,0.199 c -0.574,0 -0.863,0.434 -0.863,1.047 0,0.473 0.25,1.5 0.554,1.988 0.453,0.7 0.961,0.883 1.297,0.883 0.949,0 0.949,-1.258 0.949,-2.008 0,-0.343 0,-0.902 0.02,-1.062 -0.844,-0.742 -1.582,-0.848 -1.957,-0.848 l -0.02,-0.199 c 0.594,0 1.285,0.211 2.016,0.797 0.125,-0.512 0.441,-0.797 0.875,-0.797 0.5,0 0.797,0.516 0.797,0.672 0,0.066 -0.059,0.094 -0.117,0.094 -0.067,0 -0.094,-0.028 -0.125,-0.094 -0.161,-0.473 -0.508,-0.473 -0.528,-0.473 -0.297,0 -0.297,0.75 -0.297,0.981 0,0.203 0,0.219 0.098,0.336 0.891,1.121 1.094,2.238 1.094,2.246 0,0.019 -0.012,0.097 -0.117,0.097 -0.094,0 -0.094,-0.031 -0.145,-0.203 -0.172,-0.605 -0.488,-1.336 -0.93,-1.89 z"
         style="fill:#000000;fill-opacity:1;fill-rule:nonzero;stroke:none"
         id="path646" />
      <path
         d="m 139.734,69.554 -0.117,-0.086 -0.105,-0.09 -0.106,-0.093 -0.105,-0.098 -0.098,-0.094 -0.086,-0.097 -0.086,-0.094 -0.086,-0.106 -0.066,-0.105 -0.078,-0.106 -0.067,-0.109 -0.066,-0.105 -0.059,-0.106 -0.058,-0.113 -0.047,-0.106 -0.047,-0.117 -0.039,-0.113 -0.039,-0.106 -0.039,-0.117 -0.039,-0.105 -0.028,-0.114 -0.027,-0.117 -0.039,-0.211 -0.019,-0.113 -0.02,-0.105 -0.008,-0.106 -0.012,-0.105 -0.007,-0.098 v -0.106 l -0.012,-0.093 v -0.098 c 0,-0.941 0.277,-2.41 1.605,-3.34 0.055,0 0.133,0 0.133,0.074 0,0.04 -0.019,0.059 -0.066,0.106 -0.883,0.797 -1.211,1.93 -1.211,3.148 0,1.809 0.683,2.692 1.23,3.18 0.028,0.027 0.047,0.047 0.047,0.078 0,0.086 -0.078,0.086 -0.133,0.086 z"
         style="fill:#000000;fill-opacity:1;fill-rule:nonzero;stroke:none"
         id="path648" />
      <path
         d="m 143.285,68.718 v 0.047 l -0.012,0.02 v 0.011 l -0.007,0.008 v 0.02 l -0.012,0.007 -0.008,0.012 v 0.008 l -0.008,0.012 -0.011,0.008 -0.008,0.011 -0.012,0.008 v 0.012 l -0.008,0.008 -0.019,0.011 -0.012,0.008 h -0.008 l -0.012,0.008 -0.007,0.012 h -0.02 l -0.008,0.007 h -0.031 l -0.019,0.012 h -0.047 c -0.192,0 -0.375,-0.183 -0.375,-0.367 0,-0.105 0.086,-0.258 0.269,-0.258 0.184,0 0.375,0.172 0.375,0.375 z"
         style="fill:#000000;fill-opacity:1;fill-rule:nonzero;stroke:none"
         id="path650" />
      <path
         d="m 141.875,64.214 -0.02,-0.039 -0.011,-0.047 -0.008,-0.039 -0.02,-0.047 -0.039,-0.078 -0.019,-0.035 -0.059,-0.117 -0.027,-0.027 -0.02,-0.039 -0.027,-0.04 -0.031,-0.027 -0.02,-0.031 -0.086,-0.086 -0.039,-0.027 -0.054,-0.039 -0.04,-0.02 -0.027,-0.02 -0.039,-0.019 -0.031,-0.02 -0.039,-0.007 -0.028,-0.012 -0.039,-0.008 -0.039,-0.012 -0.035,-0.007 h -0.07 c -0.086,0 -0.172,0.007 -0.238,0.039 0.171,0.078 0.222,0.238 0.222,0.336 0,0.164 -0.125,0.25 -0.262,0.25 -0.199,0 -0.375,-0.184 -0.375,-0.395 0,-0.25 0.262,-0.422 0.665,-0.422 0.394,0 1.179,0.238 1.382,1.055 l 0.606,2.39 c 0.019,0.079 0.035,0.137 0.035,0.231 0,0.375 -0.316,0.633 -0.719,0.633 -0.738,0 -1.172,-0.93 -1.172,-1.028 0,-0.086 0.098,-0.086 0.118,-0.086 0.074,0 0.085,0.02 0.132,0.125 0.164,0.387 0.52,0.797 0.903,0.797 0.164,0 0.23,-0.105 0.23,-0.324 0,-0.078 -0.019,-0.164 -0.019,-0.203 z"
         style="fill:#000000;fill-opacity:1;fill-rule:nonzero;stroke:none"
         id="path652" />
      <path
         d="m 144.504,69.554 h -0.027 l -0.012,-0.012 h -0.039 l -0.008,-0.007 h -0.012 l -0.008,-0.012 v -0.008 h -0.011 v -0.012 l -0.008,-0.007 v -0.028 c 0,-0.031 0.019,-0.051 0.059,-0.097 0.574,-0.528 1.218,-1.43 1.218,-3.149 0,-1.402 -0.433,-2.457 -1.16,-3.109 -0.109,-0.117 -0.117,-0.117 -0.117,-0.157 0,-0.027 0.019,-0.074 0.086,-0.074 0.078,0 0.719,0.442 1.164,1.278 0.285,0.546 0.476,1.273 0.476,2.05 0,0.942 -0.277,2.403 -1.601,3.344 z"
         style="fill:#000000;fill-opacity:1;fill-rule:nonzero;stroke:none"
         id="path654" />
      <path
         d="m 106.953,42.464 h 27.199 V 31.862 h -27.199 z"
         style="fill:#ffffff;fill-opacity:1;fill-rule:nonzero;stroke:none"
         id="path656" />
      <path
         d="m 112.477,35.324 v 0.078 l -0.012,0.066 v 0.125 l -0.02,0.133 -0.007,0.117 -0.032,0.113 -0.019,0.106 -0.028,0.105 -0.078,0.196 -0.035,0.086 -0.051,0.086 -0.047,0.074 -0.046,0.078 -0.051,0.066 -0.055,0.059 -0.117,0.117 -0.059,0.047 -0.132,0.094 -0.067,0.039 -0.058,0.031 -0.079,0.035 -0.066,0.02 -0.066,0.031 -0.133,0.039 -0.071,0.008 -0.074,0.008 -0.066,0.011 h -0.137 c -1.305,0 -2.57,-1.363 -2.57,-2.707 0,-0.894 0.574,-1.613 1.554,-1.613 l 0.02,0.203 c -0.578,0 -0.867,0.43 -0.867,1.047 0,0.469 0.25,1.496 0.558,1.984 0.45,0.704 0.961,0.883 1.297,0.883 0.95,0 0.95,-1.258 0.95,-2.004 0,-0.347 0,-0.902 0.019,-1.066 -0.844,-0.738 -1.586,-0.844 -1.957,-0.844 l -0.02,-0.203 c 0.594,0 1.286,0.211 2.016,0.797 0.125,-0.508 0.442,-0.797 0.871,-0.797 0.5,0 0.797,0.52 0.797,0.672 0,0.066 -0.055,0.098 -0.113,0.098 -0.067,0 -0.098,-0.032 -0.125,-0.098 -0.164,-0.469 -0.508,-0.469 -0.528,-0.469 -0.296,0 -0.296,0.746 -0.296,0.977 0,0.203 0,0.222 0.093,0.336 0.895,1.125 1.094,2.238 1.094,2.246 0,0.019 -0.008,0.097 -0.113,0.097 -0.098,0 -0.098,-0.027 -0.145,-0.203 -0.172,-0.601 -0.488,-1.332 -0.929,-1.89 z"
         style="fill:#000000;fill-opacity:1;fill-rule:nonzero;stroke:none"
         id="path658" />
      <path
         d="m 116.43,41.554 -0.114,-0.086 -0.105,-0.086 -0.106,-0.097 -0.105,-0.094 -0.098,-0.098 -0.086,-0.094 -0.086,-0.097 -0.085,-0.106 -0.071,-0.105 -0.074,-0.106 -0.066,-0.105 -0.071,-0.106 -0.054,-0.105 -0.059,-0.117 -0.047,-0.106 -0.051,-0.113 -0.074,-0.223 -0.039,-0.113 -0.039,-0.105 -0.027,-0.118 -0.032,-0.113 -0.039,-0.211 -0.019,-0.117 -0.016,-0.105 -0.012,-0.106 -0.007,-0.105 -0.012,-0.094 v -0.11 l -0.008,-0.093 v -0.098 c 0,-0.941 0.277,-2.41 1.602,-3.34 0.058,0 0.136,0 0.136,0.078 0,0.039 -0.019,0.059 -0.07,0.106 -0.883,0.797 -1.207,1.93 -1.207,3.148 0,1.805 0.68,2.688 1.227,3.176 0.031,0.031 0.05,0.051 0.05,0.078 0,0.086 -0.078,0.086 -0.136,0.086 z"
         style="fill:#000000;fill-opacity:1;fill-rule:nonzero;stroke:none"
         id="path660" />
      <path
         d="m 119.98,40.718 v 0.051 l -0.007,0.019 v 0.008 l -0.008,0.008 v 0.02 l -0.02,0.019 v 0.012 l -0.011,0.008 -0.008,0.011 -0.012,0.008 -0.008,0.012 v 0.008 l -0.011,0.008 -0.02,0.011 -0.008,0.008 h -0.008 l -0.019,0.02 h -0.02 l -0.011,0.011 h -0.028 l -0.019,0.008 h -0.047 c -0.195,0 -0.375,-0.18 -0.375,-0.363 0,-0.106 0.086,-0.262 0.269,-0.262 0.18,0 0.371,0.176 0.371,0.375 z"
         style="fill:#000000;fill-opacity:1;fill-rule:nonzero;stroke:none"
         id="path662" />
      <path
         d="m 118.57,36.218 -0.019,-0.039 -0.008,-0.047 -0.012,-0.039 -0.019,-0.051 -0.016,-0.035 -0.098,-0.195 -0.027,-0.027 -0.019,-0.039 -0.032,-0.04 -0.027,-0.027 -0.02,-0.027 -0.027,-0.031 -0.031,-0.028 -0.027,-0.027 -0.04,-0.031 -0.027,-0.02 -0.031,-0.019 -0.039,-0.02 -0.028,-0.016 -0.039,-0.019 -0.027,-0.02 -0.039,-0.011 -0.027,-0.008 -0.039,-0.012 -0.039,-0.008 -0.04,-0.011 h -0.066 c -0.086,0 -0.172,0.011 -0.238,0.039 0.172,0.078 0.219,0.242 0.219,0.336 0,0.164 -0.125,0.25 -0.258,0.25 -0.203,0 -0.375,-0.184 -0.375,-0.395 0,-0.246 0.258,-0.422 0.66,-0.422 0.394,0 1.183,0.242 1.383,1.059 l 0.605,2.39 c 0.02,0.075 0.039,0.133 0.039,0.231 0,0.371 -0.316,0.633 -0.719,0.633 -0.742,0 -1.171,-0.934 -1.171,-1.028 0,-0.086 0.093,-0.086 0.113,-0.086 0.078,0 0.086,0.02 0.137,0.125 0.164,0.383 0.515,0.797 0.902,0.797 0.164,0 0.23,-0.105 0.23,-0.328 0,-0.078 -0.019,-0.164 -0.019,-0.203 z"
         style="fill:#000000;fill-opacity:1;fill-rule:nonzero;stroke:none"
         id="path664" />
      <path
         d="m 123.699,38.05 h 2.043 c 0.086,0 0.25,0 0.25,0.164 0,0.164 -0.152,0.164 -0.25,0.164 h -2.043 v 2.055 c 0,0.086 0,0.238 -0.164,0.238 -0.164,0 -0.164,-0.152 -0.164,-0.238 v -2.055 h -2.055 c -0.086,0 -0.25,0 -0.25,-0.156 0,-0.172 0.153,-0.172 0.25,-0.172 h 2.055 v -2.043 c 0,-0.086 0,-0.25 0.164,-0.25 0.164,0 0.164,0.153 0.164,0.25 z"
         style="fill:#000000;fill-opacity:1;fill-rule:nonzero;stroke:none"
         id="path666" />
      <path
         d="m 128.707,40.788 v 0.114 l -0.008,0.008 v 0.019 l -0.011,0.012 v 0.008 h -0.008 v 0.011 h -0.02 v 0.008 h -0.047 v 0.012 h -0.097 c -0.43,-0.422 -1.036,-0.434 -1.313,-0.434 v -0.238 c 0.16,0 0.602,0 0.969,0.191 v -3.41 c 0,-0.218 0,-0.304 -0.672,-0.304 h -0.25 v -0.243 c 0.113,0.012 0.941,0.032 1.191,0.032 0.211,0 1.043,-0.02 1.2,-0.032 v 0.243 h -0.262 c -0.672,0 -0.672,0.086 -0.672,0.304 z"
         style="fill:#000000;fill-opacity:1;fill-rule:nonzero;stroke:none"
         id="path668" />
      <path
         d="m 130.887,41.554 h -0.039 v -0.008 h -0.047 v -0.011 h -0.008 l -0.012,-0.008 h -0.008 v -0.02 h -0.011 v -0.039 c 0,-0.027 0.019,-0.047 0.058,-0.097 0.578,-0.528 1.219,-1.43 1.219,-3.149 0,-1.398 -0.43,-2.457 -1.16,-3.109 -0.117,-0.114 -0.117,-0.114 -0.117,-0.153 0,-0.031 0.019,-0.078 0.086,-0.078 0.078,0 0.711,0.442 1.152,1.278 0.301,0.546 0.492,1.277 0.492,2.054 0,0.942 -0.281,2.399 -1.605,3.34 z"
         style="fill:#000000;fill-opacity:1;fill-rule:nonzero;stroke:none"
         id="path670" />
      <g
         id="g672"
         transform="matrix(1,0,0,-1,0,106.85881)">
        <path
           d="m 127.414,102.352 c 24.434,9.488 39.063,-0.008 39.063,-0.008"
           style="fill:none;stroke:#000000;stroke-width:0.566929;stroke-linecap:butt;stroke-linejoin:miter;stroke-miterlimit:4;stroke-dasharray:none;stroke-opacity:1"
           id="path674" />
      </g>
      <g
         id="g676"
         transform="matrix(1,0.649196,0.649196,-1,0,106.85881)">
        <path
           d="m 71.472,148.032 -1.645,0.952 0.001,-1.902 z"
           style="fill:#000000;fill-opacity:1;fill-rule:evenodd;stroke:#000000;stroke-width:0.237756;stroke-linecap:butt;stroke-linejoin:miter;stroke-miterlimit:4;stroke-dasharray:none;stroke-opacity:1"
           id="path678" />
      </g>
      <g
         id="g680"
         transform="matrix(1,0,0,-1,0,106.85881)">
        <path
           d="m 77.816,102.352 c 14.247,9.488 22.778,-0.008 22.778,-0.008"
           style="fill:none;stroke:#000000;stroke-width:0.566929;stroke-linecap:butt;stroke-linejoin:miter;stroke-miterlimit:4;stroke-dasharray:none;stroke-opacity:1"
           id="path682" />
      </g>
      <g
         id="g684"
         transform="matrix(0.898298,1,1,-0.898298,0,106.85881)">
        <path
           d="m -5.657,106.55 -1.461,0.844 0.002,-1.685 z"
           style="fill:#000000;fill-opacity:1;fill-rule:evenodd;stroke:#000000;stroke-width:0.210876;stroke-linecap:butt;stroke-linejoin:miter;stroke-miterlimit:4;stroke-dasharray:none;stroke-opacity:1"
           id="path686" />
      </g>
      <g
         id="g688"
         transform="matrix(1,0,0,-1,0,106.85881)">
        <path
           d="m 27.859,102.352 c 10.454,9.488 16.711,-0.008 16.711,-0.008"
           style="fill:none;stroke:#000000;stroke-width:0.566929;stroke-linecap:butt;stroke-linejoin:miter;stroke-miterlimit:4;stroke-dasharray:none;stroke-opacity:1"
           id="path690" />
      </g>
      <g
         id="g692"
         transform="matrix(0.659004,1,1,-0.659004,0,106.85881)">
        <path
           d="m -49.782,78.1 -1.638,0.946 -0.002,-1.893 z"
           style="fill:#000000;fill-opacity:1;fill-rule:evenodd;stroke:#000000;stroke-width:0.236691;stroke-linecap:butt;stroke-linejoin:miter;stroke-miterlimit:4;stroke-dasharray:none;stroke-opacity:1"
           id="path694" />
      </g>
      <g
         id="g696"
         transform="matrix(1,0,0,-1,0,106.85881)">
        <path
           d="M 282.016,72.91 V 99.98"
           style="fill:none;stroke:#000000;stroke-width:0.8;stroke-linecap:butt;stroke-linejoin:miter;stroke-miterlimit:4;stroke-dasharray:0.8, 1.6;stroke-dashoffset:0;stroke-opacity:1"
           id="path698" />
      </g>
      <g
         id="g700"
         transform="matrix(1,0,0,-1,0,106.85881)">
        <path
           d="m 282.016,97.496 v 6.211"
           style="fill:none;stroke:#000000;stroke-width:0.793701;stroke-linecap:butt;stroke-linejoin:miter;stroke-miterlimit:4;stroke-dasharray:none;stroke-opacity:1"
           id="path702" />
      </g>
      <path
         d="m 280.879,48.062 h 27.199 V 37.464 h -27.199 z"
         style="fill:#ffffff;fill-opacity:1;fill-rule:nonzero;stroke:none"
         id="path704" />
      <path
         d="m 286.402,40.925 v 0.074 l -0.011,0.071 v 0.125 l -0.02,0.133 -0.008,0.113 -0.027,0.117 -0.02,0.105 -0.031,0.106 -0.039,0.098 -0.035,0.093 -0.039,0.086 -0.051,0.086 -0.094,0.156 -0.047,0.067 -0.058,0.058 -0.059,0.055 -0.058,0.059 -0.055,0.047 -0.07,0.05 -0.067,0.047 -0.066,0.039 -0.059,0.028 -0.074,0.039 -0.07,0.019 -0.067,0.028 -0.132,0.039 -0.067,0.011 -0.078,0.008 -0.066,0.012 h -0.137 c -1.305,0 -2.57,-1.363 -2.57,-2.707 0,-0.895 0.574,-1.613 1.554,-1.613 l 0.02,0.199 c -0.578,0 -0.863,0.433 -0.863,1.047 0,0.472 0.246,1.5 0.554,1.988 0.453,0.699 0.961,0.883 1.297,0.883 0.949,0 0.949,-1.258 0.949,-2.008 0,-0.344 0,-0.902 0.02,-1.062 -0.844,-0.743 -1.582,-0.848 -1.957,-0.848 l -0.02,-0.199 c 0.594,0 1.285,0.211 2.016,0.797 0.125,-0.512 0.441,-0.797 0.875,-0.797 0.496,0 0.797,0.515 0.797,0.672 0,0.066 -0.059,0.093 -0.117,0.093 -0.067,0 -0.098,-0.027 -0.125,-0.093 -0.164,-0.473 -0.508,-0.473 -0.528,-0.473 -0.297,0 -0.297,0.75 -0.297,0.98 0,0.203 0,0.219 0.094,0.336 0.895,1.121 1.094,2.239 1.094,2.246 0,0.02 -0.008,0.098 -0.113,0.098 -0.098,0 -0.098,-0.031 -0.145,-0.203 -0.172,-0.606 -0.488,-1.336 -0.93,-1.891 z"
         style="fill:#000000;fill-opacity:1;fill-rule:nonzero;stroke:none"
         id="path706" />
      <path
         d="m 290.355,47.156 -0.113,-0.086 -0.105,-0.09 -0.106,-0.094 -0.105,-0.098 -0.098,-0.093 -0.086,-0.098 -0.086,-0.094 -0.086,-0.105 -0.066,-0.106 -0.078,-0.105 -0.067,-0.109 -0.07,-0.106 -0.055,-0.105 -0.058,-0.114 -0.047,-0.105 -0.051,-0.117 -0.035,-0.114 -0.039,-0.105 -0.039,-0.117 -0.039,-0.106 -0.028,-0.113 -0.031,-0.117 -0.019,-0.106 -0.016,-0.105 -0.019,-0.113 -0.02,-0.106 -0.012,-0.105 -0.008,-0.106 -0.011,-0.097 v -0.106 l -0.008,-0.094 v -0.097 c 0,-0.942 0.277,-2.411 1.601,-3.34 0.059,0 0.137,0 0.137,0.074 0,0.039 -0.019,0.059 -0.07,0.105 -0.883,0.797 -1.207,1.93 -1.207,3.149 0,1.809 0.68,2.691 1.226,3.18 0.032,0.027 0.051,0.046 0.051,0.078 0,0.086 -0.078,0.086 -0.137,0.086 z"
         style="fill:#000000;fill-opacity:1;fill-rule:nonzero;stroke:none"
         id="path708" />
      <path
         d="m 293.91,46.32 v 0.047 l -0.012,0.019 v 0.012 l -0.007,0.008 v 0.019 l -0.012,0.008 -0.008,0.012 v 0.008 l -0.039,0.039 v 0.011 l -0.012,0.008 -0.015,0.012 -0.012,0.008 h -0.008 l -0.012,0.007 -0.007,0.012 h -0.02 l -0.012,0.008 h -0.027 l -0.019,0.012 h -0.047 c -0.192,0 -0.375,-0.184 -0.375,-0.367 0,-0.106 0.086,-0.258 0.269,-0.258 0.18,0 0.375,0.172 0.375,0.375 z"
         style="fill:#000000;fill-opacity:1;fill-rule:nonzero;stroke:none"
         id="path710" />
      <path
         d="m 292.496,41.816 -0.019,-0.039 -0.008,-0.047 -0.008,-0.039 -0.02,-0.047 -0.039,-0.078 -0.019,-0.035 -0.059,-0.118 -0.027,-0.027 -0.02,-0.039 -0.031,-0.039 -0.027,-0.027 -0.02,-0.032 -0.027,-0.027 -0.031,-0.027 -0.028,-0.032 -0.039,-0.027 -0.027,-0.019 -0.031,-0.02 -0.036,-0.019 -0.031,-0.02 -0.039,-0.02 -0.027,-0.019 -0.039,-0.008 -0.028,-0.012 -0.039,-0.007 -0.039,-0.012 -0.039,-0.008 h -0.066 c -0.086,0 -0.172,0.008 -0.238,0.039 0.171,0.078 0.218,0.238 0.218,0.336 0,0.164 -0.125,0.25 -0.258,0.25 -0.203,0 -0.375,-0.184 -0.375,-0.394 0,-0.25 0.258,-0.422 0.665,-0.422 0.39,0 1.179,0.238 1.382,1.054 l 0.602,2.391 c 0.019,0.078 0.039,0.137 0.039,0.23 0,0.375 -0.316,0.633 -0.719,0.633 -0.738,0 -1.172,-0.929 -1.172,-1.027 0,-0.086 0.098,-0.086 0.118,-0.086 0.074,0 0.085,0.02 0.132,0.125 0.164,0.387 0.52,0.797 0.903,0.797 0.164,0 0.23,-0.106 0.23,-0.324 0,-0.078 -0.019,-0.164 -0.019,-0.203 z"
         style="fill:#000000;fill-opacity:1;fill-rule:nonzero;stroke:none"
         id="path712" />
      <path
         d="m 297.625,43.652 h 2.043 c 0.086,0 0.25,0 0.25,0.16 0,0.164 -0.152,0.164 -0.25,0.164 h -2.043 v 2.055 c 0,0.086 0,0.242 -0.164,0.242 -0.164,0 -0.164,-0.156 -0.164,-0.242 v -2.055 h -2.055 c -0.086,0 -0.25,0 -0.25,-0.152 0,-0.172 0.156,-0.172 0.25,-0.172 h 2.055 v -2.047 c 0,-0.086 0,-0.25 0.164,-0.25 0.164,0 0.164,0.156 0.164,0.25 z"
         style="fill:#000000;fill-opacity:1;fill-rule:nonzero;stroke:none"
         id="path714" />
      <path
         d="m 302.637,46.386 v 0.117 l -0.012,0.008 v 0.02 l -0.008,0.007 v 0.012 h -0.012 v 0.008 h -0.019 v 0.012 h -0.047 v 0.008 h -0.098 c -0.429,-0.422 -1.035,-0.43 -1.312,-0.43 v -0.242 c 0.16,0 0.605,0 0.969,0.191 v -3.406 c 0,-0.223 0,-0.309 -0.672,-0.309 h -0.25 v -0.238 c 0.113,0.008 0.941,0.027 1.191,0.027 0.211,0 1.047,-0.019 1.199,-0.027 v 0.238 h -0.257 c -0.672,0 -0.672,0.086 -0.672,0.309 z"
         style="fill:#000000;fill-opacity:1;fill-rule:nonzero;stroke:none"
         id="path716" />
      <path
         d="m 304.813,47.156 h -0.036 v -0.012 h -0.05 v -0.008 h -0.008 l -0.012,-0.012 h -0.008 v -0.019 h -0.011 V 47.07 c 0,-0.032 0.019,-0.051 0.058,-0.098 0.578,-0.527 1.219,-1.43 1.219,-3.148 0,-1.403 -0.43,-2.457 -1.16,-3.11 -0.117,-0.117 -0.117,-0.117 -0.117,-0.156 0,-0.027 0.019,-0.074 0.089,-0.074 0.075,0 0.707,0.441 1.153,1.277 0.297,0.547 0.488,1.274 0.488,2.051 0,0.941 -0.277,2.402 -1.605,3.344 z"
         style="fill:#000000;fill-opacity:1;fill-rule:nonzero;stroke:none"
         id="path718" />
      <g
         id="g720"
         transform="matrix(0.829635,0,0,-1,0,106.85881)">
        <path
           d="m 319.333,96.141 v 7.488"
           style="fill:none;stroke:#000000;stroke-width:0.871391;stroke-linecap:butt;stroke-linejoin:miter;stroke-miterlimit:4;stroke-dasharray:none;stroke-opacity:1"
           id="path722" />
      </g>
      <g
         id="g724"
         transform="matrix(0.829635,0,0,-1,0,106.85881)">
        <path
           d="M 319.333,50.555 V 98.977"
           style="fill:none;stroke:#000000;stroke-width:0.878307;stroke-linecap:butt;stroke-linejoin:miter;stroke-miterlimit:4;stroke-dasharray:0.878307, 1.75661;stroke-dashoffset:0;stroke-opacity:1"
           id="path726" />
      </g>
      <g
         id="g728"
         transform="matrix(1,0,0,-1,0,106.85881)">
        <path
           d="m 204.777,7.496 v 90"
           style="fill:none;stroke:#000000;stroke-width:0.8;stroke-linecap:butt;stroke-linejoin:miter;stroke-miterlimit:4;stroke-dasharray:none;stroke-opacity:1"
           id="path730" />
      </g>
      <g
         id="g732"
         transform="matrix(0,1,1,0,0,106.85881)">
        <path
           d="m -5.648,204.777 -2.77,1.598 v -3.199 z"
           style="fill:#000000;fill-opacity:1;fill-rule:evenodd;stroke:#000000;stroke-width:0.4;stroke-linecap:butt;stroke-linejoin:miter;stroke-miterlimit:4;stroke-dasharray:none;stroke-opacity:1"
           id="path734" />
      </g>
      <g
         id="g736"
         transform="matrix(1,0,0,-1,0,106.85881)">
        <path
           d="m 204.926,97.059 h 6.062"
           style="fill:none;stroke:#000000;stroke-width:0.8;stroke-linecap:butt;stroke-linejoin:miter;stroke-miterlimit:4;stroke-dasharray:none;stroke-opacity:1"
           id="path738" />
      </g>
      <g
         id="g740"
         transform="matrix(1,0,0,-1,0,106.85881)">
        <path
           d="M 216.984,97.496 H 382.402"
           style="fill:none;stroke:#000000;stroke-width:0.793701;stroke-linecap:butt;stroke-linejoin:miter;stroke-miterlimit:4;stroke-dasharray:none;stroke-opacity:1"
           id="path742" />
      </g>
      <g
         id="g744"
         transform="matrix(1,0,0,-1,0,106.85881)">
        <path
           d="m 384.23,97.496 -2.746,1.59 V 95.91 Z"
           style="fill:#000000;fill-opacity:1;fill-rule:evenodd;stroke:#000000;stroke-width:0.39685;stroke-linecap:butt;stroke-linejoin:miter;stroke-miterlimit:4;stroke-dasharray:none;stroke-opacity:1"
           id="path746" />
      </g>
      <g
         id="g748"
         transform="matrix(1,0,0,-1,0,106.85881)">
        <path
           d="m 214.777,94.055 c -0.535,0.039 -1.058,0.261 -1.449,0.629 -0.394,0.363 -0.66,0.867 -0.742,1.394 -0.07,0.485 0.004,0.977 0.07,1.461 0.067,0.484 0.121,0.981 0.008,1.453 -0.113,0.481 -0.406,0.918 -0.805,1.207 -0.398,0.293 -0.902,0.434 -1.394,0.395"
           style="fill:none;stroke:#000000;stroke-width:0.8;stroke-linecap:butt;stroke-linejoin:miter;stroke-miterlimit:4;stroke-dasharray:none;stroke-opacity:1"
           id="path750" />
      </g>
      <g
         id="g752"
         transform="matrix(1,0,0,-1,0,106.85881)">
        <path
           d="m 217.785,94.055 c -0.535,0.039 -1.055,0.261 -1.449,0.629 -0.395,0.363 -0.66,0.867 -0.738,1.394 -0.075,0.485 0.004,0.977 0.07,1.461 0.066,0.484 0.121,0.981 0.008,1.453 -0.117,0.481 -0.406,0.918 -0.805,1.207 -0.398,0.293 -0.902,0.434 -1.394,0.395"
           style="fill:none;stroke:#000000;stroke-width:0.8;stroke-linecap:butt;stroke-linejoin:miter;stroke-miterlimit:4;stroke-dasharray:none;stroke-opacity:1"
           id="path754" />
      </g>
      <g
         id="g756"
         transform="matrix(1,0,0,-1,0,106.85881)">
        <path
           d="M 350.02,8.652 C 312.816,59.945 264.98,50.621 264.98,50.621"
           style="fill:none;stroke:#000000;stroke-width:0.793701;stroke-linecap:round;stroke-linejoin:miter;stroke-miterlimit:4;stroke-dasharray:none;stroke-opacity:1"
           id="path758" />
      </g>
      <g
         id="g760"
         transform="matrix(1,0,0,-1,0,106.85881)">
        <path
           d="m 247.633,62.852 c 37.055,22.25 68.281,0.871 68.281,0.871"
           style="fill:none;stroke:#000000;stroke-width:0.793701;stroke-linecap:butt;stroke-linejoin:miter;stroke-miterlimit:4;stroke-dasharray:3.1748, 1.5874;stroke-dashoffset:0;stroke-opacity:1"
           id="path762" />
      </g>
      <g
         id="g764"
         transform="matrix(1,0,0,-0.797056,0,106.85881)">
        <path
           d="m 271.746,64.005 c 0.02,-1.509 1.008,-2.705 2.211,-2.681 1.199,0.025 2.156,1.265 2.137,2.774 -0.024,1.505 -1.012,2.705 -2.211,2.681 -1.199,-0.029 -2.153,-1.265 -2.137,-2.764"
           style="fill:#828282;fill-opacity:1;fill-rule:nonzero;stroke:#828282;stroke-width:1.27003;stroke-linecap:round;stroke-linejoin:miter;stroke-miterlimit:4;stroke-dasharray:none;stroke-opacity:1"
           id="path766" />
      </g>
      <path
         d="m 383.699,4.445 v 0.078 l -0.008,0.066 v 0.125 l -0.019,0.133 -0.012,0.117 -0.027,0.114 -0.02,0.105 -0.027,0.105 -0.039,0.098 -0.039,0.094 -0.039,0.086 -0.047,0.09 -0.047,0.074 -0.051,0.078 -0.047,0.066 -0.172,0.172 -0.058,0.051 -0.133,0.094 -0.07,0.039 -0.133,0.066 -0.066,0.02 -0.067,0.027 -0.07,0.02 -0.067,0.019 -0.066,0.012 -0.078,0.008 -0.067,0.011 h -0.132 c -1.309,0 -2.575,-1.363 -2.575,-2.707 0,-0.894 0.575,-1.613 1.555,-1.613 l 0.02,0.199 c -0.575,0 -0.864,0.434 -0.864,1.047 0,0.473 0.25,1.5 0.555,1.989 0.453,0.699 0.961,0.882 1.297,0.882 0.949,0 0.949,-1.257 0.949,-2.007 0,-0.344 0,-0.903 0.02,-1.063 -0.844,-0.742 -1.582,-0.848 -1.957,-0.848 l -0.02,-0.199 c 0.598,0 1.285,0.211 2.016,0.797 0.125,-0.512 0.441,-0.797 0.875,-0.797 0.5,0 0.797,0.516 0.797,0.672 0,0.066 -0.059,0.094 -0.118,0.094 -0.066,0 -0.093,-0.028 -0.125,-0.094 -0.16,-0.473 -0.507,-0.473 -0.527,-0.473 -0.297,0 -0.297,0.75 -0.297,0.981 0,0.203 0,0.223 0.098,0.336 0.891,1.125 1.094,2.238 1.094,2.246 0,0.019 -0.012,0.098 -0.118,0.098 -0.093,0 -0.093,-0.032 -0.144,-0.204 -0.172,-0.605 -0.488,-1.336 -0.93,-1.89 z"
         style="fill:#000000;fill-opacity:1;fill-rule:nonzero;stroke:none"
         id="path768" />
      <path
         d="m 204.496,5.968 v 0.145 l -0.012,0.144 v 0.145 l -0.007,0.144 -0.012,0.133 -0.016,0.289 -0.019,0.145 -0.02,0.133 -0.031,0.144 -0.027,0.137 -0.039,0.14 -0.04,0.137 -0.046,0.133 -0.059,0.137 -0.055,0.132 c -0.441,0.911 -1.23,1.067 -1.633,1.067 -0.566,0 -1.269,-0.242 -1.66,-1.133 -0.308,-0.664 -0.355,-1.402 -0.355,-2.172 0,-0.719 0.035,-1.574 0.43,-2.301 0.414,-0.777 1.113,-0.961 1.574,-0.961 v 0.2 c -0.375,0 -0.93,0.242 -1.102,1.164 -0.105,0.574 -0.105,1.449 -0.105,2.015 0,0.614 0,1.239 0.074,1.758 0.184,1.133 0.894,1.219 1.133,1.219 0.316,0 0.953,-0.172 1.133,-1.113 0.097,-0.539 0.097,-1.258 0.097,-1.864 0,-0.718 0,-1.363 -0.105,-1.976 -0.145,-0.914 -0.692,-1.203 -1.125,-1.203 v -0.2 c 0.519,0 1.25,0.2 1.672,1.102 0.308,0.664 0.355,1.402 0.355,2.16 z"
         style="fill:#000000;fill-opacity:1;fill-rule:nonzero;stroke:none"
         id="path770" />
      <path
         d="m 212.332,106.038 v 0.04 l 0.008,0.011 v 0.028 l 0.012,0.011 v 0.028 l 0.007,0.007 v 0.012 c 0,0.008 0,0.094 -0.113,0.094 -0.098,0 -0.105,-0.027 -0.144,-0.191 l -0.559,-2.207 c -1.516,-0.047 -2.926,-1.317 -2.926,-2.61 0,-0.914 0.672,-1.672 1.832,-1.73 l 0.047,0.203 c -0.566,0.027 -1.258,0.363 -1.258,1.324 0,1.141 0.828,2.484 2.246,2.602 l -0.988,-3.926 -0.047,-0.203 c -0.066,-0.297 -0.144,-0.606 -0.219,-0.903 -0.109,-0.449 -0.203,-0.816 -0.203,-0.843 0,-0.098 0.067,-0.098 0.114,-0.098 0.039,0 0.058,0 0.089,0.031 0.028,0.02 0.075,0.25 0.106,0.383 l 0.363,1.43 0.047,0.203 0.988,3.926 c 0.731,-0.028 1.278,-0.473 1.278,-1.317 0,-1.121 -0.824,-2.496 -2.266,-2.609 l -0.047,-0.203 c 1.547,0.047 2.926,1.336 2.926,2.613 0,0.758 -0.496,1.629 -1.832,1.727 z"
         style="fill:#000000;fill-opacity:1;fill-rule:nonzero;stroke:none"
         id="path772" />
      <path
         d="m 217.016,97.351 v 0.02 h -0.008 v 0.019 h -0.012 v 0.012 l -0.008,0.008 v 0.007 h -0.011 v 0.012 h -0.008 v 0.008 l -0.012,0.012 h -0.008 v 0.007 l -0.031,0.032 v 0.008 h -0.008 l -0.008,0.011 -0.011,0.008 -0.008,0.008 v 0.012 h -0.012 l -0.008,0.007 v 0.012 l -0.011,0.008 c -1.2,1.203 -1.508,3.008 -1.508,4.465 0,1.66 0.367,3.332 1.547,4.523 0.125,0.113 0.125,0.133 0.125,0.16 0,0.071 -0.039,0.098 -0.098,0.098 -0.094,0 -0.957,-0.652 -1.523,-1.863 -0.481,-1.055 -0.606,-2.11 -0.606,-2.918 0,-0.739 0.106,-1.899 0.633,-2.977 0.578,-1.179 1.402,-1.793 1.496,-1.793 0.059,0 0.098,0.028 0.098,0.094 z"
         style="fill:#000000;fill-opacity:1;fill-rule:nonzero;stroke:none"
         id="path774" />
      <path
         d="m 222.133,101.894 v 0.144 l -0.012,0.067 v 0.058 l -0.016,0.133 -0.011,0.114 -0.028,0.117 -0.019,0.105 -0.031,0.106 -0.036,0.097 -0.039,0.094 -0.039,0.086 -0.047,0.086 -0.039,0.078 -0.058,0.078 -0.047,0.067 -0.059,0.058 -0.058,0.055 -0.055,0.059 -0.059,0.046 -0.066,0.051 -0.07,0.047 -0.055,0.039 -0.07,0.027 -0.067,0.04 -0.074,0.019 -0.07,0.027 -0.133,0.039 -0.066,0.012 -0.079,0.008 -0.066,0.012 h -0.133 c -1.308,0 -2.574,-1.364 -2.574,-2.711 0,-0.891 0.574,-1.61 1.555,-1.61 l 0.019,0.2 c -0.578,0 -0.863,0.433 -0.863,1.046 0,0.473 0.25,1.497 0.555,1.989 0.453,0.699 0.961,0.883 1.297,0.883 0.949,0 0.949,-1.258 0.949,-2.008 0,-0.344 0,-0.903 0.019,-1.067 -0.843,-0.738 -1.582,-0.843 -1.957,-0.843 l -0.019,-0.2 c 0.605,0 1.285,0.211 2.015,0.797 0.125,-0.511 0.442,-0.797 0.875,-0.797 0.5,0 0.797,0.516 0.797,0.672 0,0.067 -0.058,0.094 -0.117,0.094 -0.059,0 -0.086,-0.027 -0.113,-0.094 -0.172,-0.472 -0.52,-0.472 -0.539,-0.472 -0.297,0 -0.297,0.75 -0.297,0.98 0,0.199 0,0.219 0.097,0.336 0.903,1.121 1.094,2.238 1.094,2.246 0,0.02 -0.011,0.098 -0.117,0.098 -0.094,0 -0.094,-0.031 -0.133,-0.203 -0.183,-0.606 -0.492,-1.336 -0.941,-1.891 z"
         style="fill:#000000;fill-opacity:1;fill-rule:nonzero;stroke:none"
         id="path776" />
      <path
         d="m 226.48,102.027 v 0.297 l -0.007,0.164 -0.012,0.172 -0.02,0.175 -0.019,0.18 -0.027,0.191 -0.028,0.196 -0.039,0.191 -0.039,0.199 -0.059,0.204 -0.054,0.203 -0.071,0.199 -0.074,0.203 -0.039,0.105 -0.047,0.106 -0.039,0.094 -0.051,0.105 c -0.574,1.172 -1.398,1.797 -1.496,1.797 -0.058,0 -0.093,-0.039 -0.093,-0.098 0,-0.027 0,-0.047 0.179,-0.218 0.942,-0.942 1.489,-2.469 1.489,-4.465 0,-1.633 -0.356,-3.313 -1.547,-4.512 -0.121,-0.113 -0.121,-0.133 -0.121,-0.164 0,-0.055 0.035,-0.094 0.093,-0.094 0.098,0 0.961,0.641 1.528,1.86 0.48,1.046 0.593,2.113 0.593,2.91 z"
         style="fill:#000000;fill-opacity:1;fill-rule:nonzero;stroke:none"
         id="path778" />
      <path
         d="m 275.996,62.703 v 0.078 l -0.012,0.066 v 0.125 l -0.019,0.133 -0.008,0.117 -0.031,0.113 -0.016,0.106 -0.031,0.105 -0.039,0.098 -0.039,0.094 -0.035,0.09 -0.051,0.085 -0.047,0.075 -0.047,0.078 -0.047,0.066 -0.117,0.117 -0.059,0.055 -0.054,0.051 -0.071,0.047 -0.066,0.047 -0.066,0.039 -0.059,0.027 -0.074,0.039 -0.07,0.02 -0.067,0.031 -0.066,0.016 -0.067,0.019 -0.07,0.012 -0.074,0.008 -0.067,0.011 h -0.136 c -1.305,0 -2.571,-1.363 -2.571,-2.707 0,-0.894 0.575,-1.613 1.555,-1.613 l 0.02,0.199 c -0.579,0 -0.868,0.434 -0.868,1.047 0,0.473 0.25,1.5 0.559,1.988 0.449,0.7 0.961,0.883 1.297,0.883 0.949,0 0.949,-1.258 0.949,-2.004 0,-0.347 0,-0.902 0.02,-1.066 -0.844,-0.742 -1.586,-0.848 -1.957,-0.848 l -0.02,-0.199 c 0.594,0 1.285,0.211 2.016,0.797 0.125,-0.508 0.441,-0.797 0.871,-0.797 0.5,0 0.797,0.52 0.797,0.672 0,0.066 -0.055,0.094 -0.114,0.094 -0.066,0 -0.097,-0.028 -0.125,-0.094 -0.164,-0.473 -0.507,-0.473 -0.527,-0.473 -0.297,0 -0.297,0.75 -0.297,0.981 0,0.203 0,0.222 0.094,0.336 0.894,1.125 1.094,2.238 1.094,2.246 0,0.019 -0.008,0.097 -0.114,0.097 -0.097,0 -0.097,-0.031 -0.144,-0.203 -0.172,-0.605 -0.488,-1.332 -0.93,-1.89 z"
         style="fill:#000000;fill-opacity:1;fill-rule:nonzero;stroke:none"
         id="path780" />
      <path
         d="m 279.949,68.933 -0.113,-0.086 -0.106,-0.086 -0.105,-0.098 -0.105,-0.093 -0.098,-0.098 -0.086,-0.098 -0.086,-0.093 -0.086,-0.106 -0.07,-0.105 -0.074,-0.106 -0.067,-0.105 -0.07,-0.106 -0.055,-0.105 -0.058,-0.117 -0.047,-0.106 -0.051,-0.113 -0.074,-0.223 -0.039,-0.113 -0.039,-0.105 -0.028,-0.118 -0.031,-0.113 -0.039,-0.211 -0.02,-0.117 -0.015,-0.106 -0.012,-0.105 -0.008,-0.105 -0.012,-0.098 v -0.106 l -0.007,-0.093 v -0.098 c 0,-0.941 0.277,-2.41 1.601,-3.34 0.059,0 0.137,0 0.137,0.078 0,0.035 -0.02,0.055 -0.07,0.106 -0.883,0.797 -1.207,1.929 -1.207,3.148 0,1.805 0.679,2.688 1.226,3.176 0.031,0.031 0.051,0.047 0.051,0.078 0,0.086 -0.078,0.086 -0.137,0.086 z"
         style="fill:#000000;fill-opacity:1;fill-rule:nonzero;stroke:none"
         id="path782" />
      <path
         d="m 283.5,68.097 v 0.047 l -0.008,0.019 v 0.012 l -0.008,0.008 v 0.02 l -0.019,0.019 v 0.012 l -0.012,0.008 -0.027,0.027 v 0.012 l -0.012,0.007 -0.019,0.012 -0.008,0.008 h -0.008 l -0.02,0.02 h -0.019 l -0.012,0.011 h -0.027 l -0.02,0.008 h -0.047 c -0.191,0 -0.375,-0.184 -0.375,-0.363 0,-0.106 0.086,-0.262 0.27,-0.262 0.18,0 0.371,0.176 0.371,0.375 z"
         style="fill:#000000;fill-opacity:1;fill-rule:nonzero;stroke:none"
         id="path784" />
      <path
         d="m 282.09,63.597 -0.02,-0.039 -0.007,-0.051 -0.012,-0.035 -0.02,-0.051 -0.015,-0.039 -0.02,-0.035 -0.078,-0.156 -0.027,-0.028 -0.02,-0.039 -0.031,-0.039 -0.027,-0.027 -0.02,-0.027 -0.027,-0.032 -0.032,-0.027 -0.027,-0.031 -0.039,-0.028 -0.027,-0.019 -0.032,-0.02 -0.035,-0.019 -0.031,-0.02 -0.039,-0.019 -0.027,-0.016 -0.039,-0.012 -0.028,-0.007 -0.039,-0.012 -0.039,-0.008 -0.039,-0.012 h -0.066 c -0.086,0 -0.172,0.012 -0.239,0.039 0.172,0.079 0.219,0.243 0.219,0.336 0,0.164 -0.125,0.25 -0.258,0.25 -0.203,0 -0.375,-0.183 -0.375,-0.394 0,-0.25 0.258,-0.422 0.66,-0.422 0.395,0 1.184,0.242 1.383,1.055 l 0.606,2.39 c 0.019,0.078 0.039,0.137 0.039,0.231 0,0.375 -0.317,0.637 -0.719,0.637 -0.742,0 -1.172,-0.934 -1.172,-1.028 0,-0.09 0.094,-0.09 0.113,-0.09 0.079,0 0.09,0.02 0.137,0.125 0.164,0.387 0.516,0.797 0.902,0.797 0.165,0 0.231,-0.105 0.231,-0.324 0,-0.078 -0.02,-0.164 -0.02,-0.203 z"
         style="fill:#000000;fill-opacity:1;fill-rule:nonzero;stroke:none"
         id="path786" />
      <path
         d="m 284.723,68.933 h -0.032 l -0.007,-0.012 h -0.039 l -0.012,-0.008 h -0.008 l -0.008,-0.007 v -0.012 h -0.012 v -0.008 l -0.007,-0.012 v -0.027 c 0,-0.031 0.019,-0.047 0.054,-0.098 0.578,-0.527 1.223,-1.429 1.223,-3.148 0,-1.402 -0.434,-2.457 -1.164,-3.109 -0.106,-0.118 -0.113,-0.118 -0.113,-0.153 0,-0.031 0.019,-0.078 0.086,-0.078 0.074,0 0.718,0.442 1.16,1.277 0.289,0.547 0.48,1.278 0.48,2.055 0,0.942 -0.277,2.399 -1.601,3.34 z"
         style="fill:#000000;fill-opacity:1;fill-rule:nonzero;stroke:none"
         id="path788" />
      <g
         id="g790"
         transform="matrix(1,0,0,-1,0,106.85881)">
        <path
           d="m 350.031,97.496 v 6.211"
           style="fill:none;stroke:#000000;stroke-width:0.793701;stroke-linecap:butt;stroke-linejoin:miter;stroke-miterlimit:4;stroke-dasharray:none;stroke-opacity:1"
           id="path792" />
      </g>
      <g
         id="g794"
         transform="matrix(1,0,0,-1,0,106.85881)">
        <path
           d="M 350.031,9.063 V 99.84"
           style="fill:none;stroke:#000000;stroke-width:0.8;stroke-linecap:butt;stroke-linejoin:miter;stroke-miterlimit:4;stroke-dasharray:0.8, 1.6;stroke-dashoffset:0;stroke-opacity:1"
           id="path796" />
      </g>
      <g
         id="g798"
         transform="matrix(1,0,0,-1,0,106.85881)">
        <path
           d="m 307.5,97.496 v 6.211"
           style="fill:none;stroke:#000000;stroke-width:0.793701;stroke-linecap:butt;stroke-linejoin:miter;stroke-miterlimit:4;stroke-dasharray:none;stroke-opacity:1"
           id="path800" />
      </g>
      <g
         id="g802"
         transform="matrix(1,0,0,-1,0,106.85881)">
        <path
           d="M 307.5,44.207 V 99.969"
           style="fill:none;stroke:#000000;stroke-width:0.8;stroke-linecap:butt;stroke-linejoin:miter;stroke-miterlimit:4;stroke-dasharray:0.8, 1.6;stroke-dashoffset:0;stroke-opacity:1"
           id="path804" />
      </g>
      <path
         d="m 344.531,26.07 h 11 v -7.602 h -11 z"
         style="fill:#ffffff;fill-opacity:1;fill-rule:nonzero;stroke:none"
         id="path806" />
      <path
         d="m 302,26.07 h 11 v -7.602 h -11 z"
         style="fill:#ffffff;fill-opacity:1;fill-rule:nonzero;stroke:none"
         id="path808" />
      <path
         d="m 259.43,26.062 h 11 v -7.598 h -11 z"
         style="fill:#ffffff;fill-opacity:1;fill-rule:nonzero;stroke:none"
         id="path810" />
      <path
         d="m 264.66,22.691 v 0.078 l -0.008,0.066 v 0.125 l -0.019,0.133 -0.012,0.117 -0.027,0.114 -0.02,0.105 -0.027,0.106 -0.078,0.195 -0.039,0.086 -0.047,0.086 -0.047,0.074 -0.051,0.078 -0.047,0.067 -0.058,0.058 -0.055,0.059 -0.059,0.058 -0.058,0.047 -0.133,0.094 -0.066,0.039 -0.059,0.031 -0.078,0.035 -0.067,0.02 -0.066,0.031 -0.066,0.02 -0.071,0.019 -0.066,0.008 -0.078,0.012 -0.067,0.008 h -0.132 c -1.305,0 -2.575,-1.364 -2.575,-2.707 0,-0.895 0.579,-1.614 1.555,-1.614 l 0.02,0.203 c -0.575,0 -0.864,0.43 -0.864,1.047 0,0.469 0.25,1.496 0.559,1.985 0.449,0.703 0.957,0.882 1.293,0.882 0.953,0 0.953,-1.257 0.953,-2.003 0,-0.348 0,-0.903 0.02,-1.067 -0.848,-0.738 -1.586,-0.844 -1.961,-0.844 l -0.02,-0.203 c 0.598,0 1.289,0.211 2.016,0.797 0.125,-0.508 0.441,-0.797 0.875,-0.797 0.5,0 0.797,0.52 0.797,0.672 0,0.067 -0.059,0.098 -0.114,0.098 -0.07,0 -0.097,-0.031 -0.125,-0.098 -0.164,-0.469 -0.511,-0.469 -0.531,-0.469 -0.297,0 -0.297,0.746 -0.297,0.977 0,0.203 0,0.223 0.098,0.336 0.89,1.125 1.094,2.238 1.094,2.246 0,0.02 -0.008,0.098 -0.114,0.098 -0.097,0 -0.097,-0.028 -0.144,-0.203 -0.176,-0.602 -0.492,-1.333 -0.934,-1.891 z"
         style="fill:#000000;fill-opacity:1;fill-rule:nonzero;stroke:none"
         id="path812" />
      <path
         d="m 268.453,23.249 v 0.086 l -0.008,0.008 v 0.039 l -0.011,0.012 v 0.008 l -0.02,0.019 h -0.008 l -0.011,0.008 h -0.04 l -0.007,0.012 h -0.098 c -0.43,-0.422 -1.035,-0.434 -1.312,-0.434 v -0.238 c 0.16,0 0.605,0 0.968,0.191 v -3.406 c 0,-0.223 0,-0.308 -0.664,-0.308 h -0.258 v -0.243 c 0.125,0.012 0.95,0.032 1.192,0.032 0.211,0 1.054,-0.02 1.199,-0.032 v 0.243 h -0.25 c -0.672,0 -0.672,0.085 -0.672,0.308 z"
         style="fill:#000000;fill-opacity:1;fill-rule:nonzero;stroke:none"
         id="path814" />
      <path
         d="m 307.125,22.687 v 0.074 l -0.008,0.067 v 0.125 l -0.019,0.136 -0.012,0.114 -0.027,0.117 -0.02,0.105 -0.027,0.106 -0.039,0.093 -0.039,0.098 -0.039,0.086 -0.047,0.086 -0.047,0.078 -0.051,0.078 -0.047,0.067 -0.058,0.058 -0.059,0.055 -0.055,0.058 -0.058,0.047 -0.067,0.051 -0.066,0.047 -0.07,0.039 -0.133,0.066 -0.067,0.02 -0.066,0.027 -0.07,0.02 -0.067,0.019 -0.066,0.008 -0.078,0.012 -0.067,0.008 h -0.133 c -1.308,0 -2.574,-1.364 -2.574,-2.707 0,-0.891 0.574,-1.614 1.555,-1.614 l 0.019,0.204 c -0.574,0 -0.863,0.433 -0.863,1.046 0,0.469 0.25,1.497 0.555,1.989 0.453,0.699 0.961,0.883 1.297,0.883 0.953,0 0.953,-1.258 0.953,-2.008 0,-0.344 0,-0.903 0.015,-1.067 -0.843,-0.738 -1.582,-0.843 -1.957,-0.843 l -0.019,-0.204 c 0.598,0 1.285,0.215 2.016,0.797 0.125,-0.507 0.441,-0.797 0.875,-0.797 0.5,0 0.796,0.52 0.796,0.672 0,0.071 -0.058,0.098 -0.117,0.098 -0.066,0 -0.094,-0.027 -0.125,-0.098 -0.16,-0.468 -0.508,-0.468 -0.527,-0.468 -0.297,0 -0.297,0.75 -0.297,0.98 0,0.199 0,0.219 0.098,0.336 0.89,1.121 1.093,2.234 1.093,2.246 0,0.02 -0.011,0.094 -0.117,0.094 -0.094,0 -0.094,-0.028 -0.144,-0.199 -0.172,-0.606 -0.489,-1.336 -0.93,-1.891 z"
         style="fill:#000000;fill-opacity:1;fill-rule:nonzero;stroke:none"
         id="path816" />
      <path
         d="m 312.051,20.218 h -0.223 c -0.027,-0.152 -0.094,-0.547 -0.18,-0.613 -0.05,-0.039 -0.566,-0.039 -0.664,-0.039 h -1.23 c 0.703,0.625 0.941,0.805 1.348,1.121 0.488,0.394 0.949,0.809 0.949,1.441 0,0.805 -0.711,1.305 -1.567,1.305 -0.824,0 -1.39,-0.586 -1.39,-1.199 0,-0.336 0.289,-0.375 0.355,-0.375 0.164,0 0.356,0.117 0.356,0.355 0,0.125 -0.051,0.356 -0.395,0.356 0.211,0.472 0.664,0.625 0.981,0.625 0.66,0 1.015,-0.52 1.015,-1.067 0,-0.574 -0.422,-1.035 -0.633,-1.277 l -1.613,-1.594 c -0.066,-0.058 -0.066,-0.066 -0.066,-0.258 h 2.754 z"
         style="fill:#000000;fill-opacity:1;fill-rule:nonzero;stroke:none"
         id="path818" />
      <path
         d="m 349.625,22.82 v 0.078 l -0.008,0.066 v 0.125 l -0.019,0.133 -0.008,0.117 -0.031,0.114 -0.02,0.105 -0.027,0.105 -0.039,0.098 -0.039,0.094 -0.039,0.09 -0.047,0.086 -0.047,0.074 -0.047,0.078 -0.051,0.066 -0.055,0.059 -0.058,0.059 -0.059,0.054 -0.058,0.051 -0.133,0.094 -0.067,0.039 -0.058,0.027 -0.078,0.039 -0.067,0.02 -0.066,0.031 -0.066,0.02 -0.067,0.015 -0.07,0.012 -0.074,0.008 -0.071,0.011 h -0.133 c -1.304,0 -2.574,-1.363 -2.574,-2.707 0,-0.894 0.578,-1.613 1.559,-1.613 l 0.015,0.199 c -0.574,0 -0.863,0.434 -0.863,1.047 0,0.473 0.25,1.5 0.559,1.989 0.449,0.699 0.961,0.882 1.297,0.882 0.949,0 0.949,-1.257 0.949,-2.004 0,-0.347 0,-0.902 0.019,-1.066 -0.843,-0.738 -1.586,-0.848 -1.961,-0.848 l -0.015,-0.199 c 0.594,0 1.285,0.211 2.015,0.797 0.125,-0.508 0.442,-0.797 0.872,-0.797 0.5,0 0.796,0.52 0.796,0.672 0,0.066 -0.058,0.094 -0.113,0.094 -0.066,0 -0.098,-0.028 -0.125,-0.094 -0.164,-0.473 -0.508,-0.473 -0.527,-0.473 -0.301,0 -0.301,0.75 -0.301,0.981 0,0.203 0,0.223 0.098,0.336 0.894,1.125 1.093,2.238 1.093,2.246 0,0.019 -0.007,0.098 -0.113,0.098 -0.098,0 -0.098,-0.032 -0.144,-0.204 -0.172,-0.605 -0.493,-1.332 -0.934,-1.89 z"
         style="fill:#000000;fill-opacity:1;fill-rule:nonzero;stroke:none"
         id="path820" />
      <path
         d="m 353.008,21.359 h 0.094 l 0.039,-0.008 h 0.047 l 0.05,-0.008 0.035,-0.019 0.051,-0.012 0.035,-0.02 0.118,-0.058 0.039,-0.016 0.039,-0.031 0.027,-0.027 0.039,-0.032 0.027,-0.035 0.032,-0.031 0.027,-0.039 0.02,-0.035 0.027,-0.039 0.019,-0.051 0.059,-0.141 0.02,-0.051 0.007,-0.054 0.012,-0.051 0.008,-0.055 0.012,-0.07 0.007,-0.055 v -0.136 c 0,-0.825 -0.48,-1.075 -0.875,-1.075 -0.257,0 -0.851,0.078 -1.132,0.469 0.32,0.02 0.386,0.231 0.386,0.375 0,0.211 -0.156,0.367 -0.367,0.367 -0.18,0 -0.371,-0.117 -0.371,-0.386 0,-0.622 0.688,-1.036 1.504,-1.036 0.934,0 1.566,0.625 1.566,1.286 0,0.527 -0.421,1.046 -1.16,1.199 0.699,0.25 0.957,0.75 0.957,1.164 0,0.527 -0.601,0.922 -1.351,0.922 -0.739,0 -1.305,-0.367 -1.305,-0.895 0,-0.23 0.141,-0.355 0.344,-0.355 0.211,0 0.336,0.156 0.336,0.336 0,0.191 -0.125,0.336 -0.336,0.347 0.23,0.297 0.691,0.375 0.941,0.375 0.297,0 0.719,-0.156 0.719,-0.73 0,-0.281 -0.086,-0.586 -0.27,-0.797 -0.211,-0.25 -0.402,-0.27 -0.738,-0.289 -0.164,-0.008 -0.183,-0.008 -0.211,-0.02 -0.008,0 -0.066,-0.007 -0.066,-0.086 0,-0.097 0.058,-0.097 0.172,-0.097 z"
         style="fill:#000000;fill-opacity:1;fill-rule:nonzero;stroke:none"
         id="path822" />
      <g
         id="g824"
         transform="matrix(1,0,0,-1,0,106.85881)">
        <path
           d="M 316.031,64.09 V 99.895"
           style="fill:none;stroke:#000000;stroke-width:0.8;stroke-linecap:butt;stroke-linejoin:miter;stroke-miterlimit:4;stroke-dasharray:0.8, 1.6;stroke-dashoffset:0;stroke-opacity:1"
           id="path826" />
      </g>
      <g
         id="g828"
         transform="matrix(1,0,0,-1,0,106.85881)">
        <path
           d="m 316.031,97.496 v 6.211"
           style="fill:none;stroke:#000000;stroke-width:0.793701;stroke-linecap:butt;stroke-linejoin:miter;stroke-miterlimit:4;stroke-dasharray:none;stroke-opacity:1"
           id="path830" />
      </g>
      <g
         id="g832"
         transform="matrix(1,0,0,-1,0,106.85881)">
        <path
           d="M 247.73,62.828 V 99.883"
           style="fill:none;stroke:#000000;stroke-width:0.8;stroke-linecap:butt;stroke-linejoin:miter;stroke-miterlimit:4;stroke-dasharray:0.8, 1.6;stroke-dashoffset:0;stroke-opacity:1"
           id="path834" />
      </g>
      <g
         id="g836"
         transform="matrix(1,0,0,-1,0,106.85881)">
        <path
           d="m 247.73,97.496 v 6.211"
           style="fill:none;stroke:#000000;stroke-width:0.793701;stroke-linecap:butt;stroke-linejoin:miter;stroke-miterlimit:4;stroke-dasharray:none;stroke-opacity:1"
           id="path838" />
      </g>
      <path
         d="m 219.016,6.499 h 158.84 V 1.827 h -158.84 z"
         style="fill:#ffffff;fill-opacity:1;fill-rule:nonzero;stroke:none"
         id="path840" />
      <g
         id="g842"
         transform="matrix(1,0,0,-1,0,106.85881)">
        <path
           d="m 348.859,102.352 c -19.656,9.488 -31.421,-0.008 -31.421,-0.008"
           style="fill:none;stroke:#000000;stroke-width:0.566929;stroke-linecap:butt;stroke-linejoin:miter;stroke-miterlimit:4;stroke-dasharray:none;stroke-opacity:1"
           id="path844" />
      </g>
      <g
         id="g846"
         transform="matrix(-1,0.806993,0.806993,1,0,106.85881)">
        <path
           d="m -241.241,93.157 -1.526,0.883 0.001,-1.766 z"
           style="fill:#000000;fill-opacity:1;fill-rule:evenodd;stroke:#000000;stroke-width:0.220594;stroke-linecap:butt;stroke-linejoin:miter;stroke-miterlimit:4;stroke-dasharray:none;stroke-opacity:1"
           id="path848" />
      </g>
      <g
         id="g850"
         transform="matrix(1,0,0,-1,0,106.85881)">
        <path
           d="m 307.035,102.352 c -14.859,9.488 -23.758,-0.008 -23.758,-0.008"
           style="fill:none;stroke:#000000;stroke-width:0.566929;stroke-linecap:butt;stroke-linejoin:miter;stroke-miterlimit:4;stroke-dasharray:none;stroke-opacity:1"
           id="path852" />
      </g>
      <g
         id="g854"
         transform="matrix(-0.936874,1,1,0.936874,0,106.85881)">
        <path
           d="m -194.888,99.797 -1.433,0.829 v -1.655 z"
           style="fill:#000000;fill-opacity:1;fill-rule:evenodd;stroke:#000000;stroke-width:0.206863;stroke-linecap:butt;stroke-linejoin:miter;stroke-miterlimit:4;stroke-dasharray:none;stroke-opacity:1"
           id="path856" />
      </g>
      <g
         id="g858"
         transform="matrix(1,0,0,-1,0,106.85881)">
        <path
           d="m 264.777,102.352 c -10.07,9.488 -16.097,-0.008 -16.097,-0.008"
           style="fill:none;stroke:#000000;stroke-width:0.566929;stroke-linecap:butt;stroke-linejoin:miter;stroke-miterlimit:4;stroke-dasharray:none;stroke-opacity:1"
           id="path860" />
      </g>
      <g
         id="g862"
         transform="matrix(-0.634785,1,1,0.634785,0,106.85881)">
        <path
           d="m -184.361,130.947 -1.66,0.958 10e-4,-1.914 z"
           style="fill:#000000;fill-opacity:1;fill-rule:evenodd;stroke:#000000;stroke-width:0.239319;stroke-linecap:butt;stroke-linejoin:miter;stroke-miterlimit:4;stroke-dasharray:none;stroke-opacity:1"
           id="path864" />
      </g>
      <g
         id="g866"
         transform="matrix(1,0,0,-0.797056,0,106.85881)">
        <path
           d="m 281.148,91.455 c 0.02,-1.51 1.012,-2.71 2.211,-2.681 1.2,0.024 2.157,1.264 2.137,2.769 -0.019,1.509 -1.008,2.71 -2.211,2.681 -1.195,-0.025 -2.152,-1.26 -2.137,-2.76"
           style="fill:#828282;fill-opacity:1;fill-rule:nonzero;stroke:#828282;stroke-width:1.27003;stroke-linecap:round;stroke-linejoin:miter;stroke-miterlimit:4;stroke-dasharray:none;stroke-opacity:1"
           id="path868" />
      </g>
    </g>
  </g>
</svg>
