<?xml version="1.0" encoding="UTF-8" standalone="no"?>
<!-- Created with Inkscape (http://www.inkscape.org/) -->

<svg
   version="1.1"
   id="svg2851"
   width="298.93201"
   height="127.84753"
   viewBox="0 0 298.932 127.84753"
   sodipodi:docname="ls_explicit.pdf"
   xmlns:inkscape="http://www.inkscape.org/namespaces/inkscape"
   xmlns:sodipodi="http://sodipodi.sourceforge.net/DTD/sodipodi-0.dtd"
   xmlns="http://www.w3.org/2000/svg"
   xmlns:svg="http://www.w3.org/2000/svg">
  <defs
     id="defs2855" />
  <sodipodi:namedview
     id="namedview2853"
     pagecolor="#ffffff"
     bordercolor="#000000"
     borderopacity="0.25"
     inkscape:showpageshadow="2"
     inkscape:pageopacity="0.0"
     inkscape:pagecheckerboard="0"
     inkscape:deskcolor="#d1d1d1"
     showgrid="false" />
  <g
     id="g2859"
     inkscape:groupmode="layer"
     inkscape:label="Page 1"
     transform="matrix(1.3333333,0,0,-1.3333333,0,127.89553)">
    <g
       id="g2861">
      <g
         id="g2863"
         transform="matrix(1,0,0,-1,0,95.926643)">
        <path
           d="M 7.477,65.008 V 34.473 c 2.847,-3.598 6.207,-6.793 9.945,-9.45 9.766,-6.937 22.031,-10.062 33.988,-9.363 11.957,0.699 23.574,5.11 33.426,11.93 4.004,2.769 7.73,5.93 11.676,8.785 3.949,2.859 8.176,5.434 12.836,6.859 7.726,2.36 16.101,1.387 23.918,-0.656 7.816,-2.047 15.339,-5.133 23.191,-7.039 20.168,-4.898 42.215,-1.551 60.02,9.113 l 0.121,29.282"
           style="fill:#d9d9d9;fill-opacity:1;fill-rule:nonzero;stroke:#000000;stroke-width:0.850394;stroke-linecap:butt;stroke-linejoin:miter;stroke-miterlimit:4;stroke-dasharray:none;stroke-opacity:1"
           id="path2865" />
      </g>
      <g
         id="g2867"
         transform="matrix(1,0,0,-1,0,95.926643)">
        <path
           d="M 7.602,72.961 V 44.645 c 6.371,-2.364 13.644,-2.196 19.902,0.453 5.137,2.175 9.457,5.867 13.715,9.468 4.261,3.602 8.656,7.231 13.863,9.227 4.953,1.898 10.414,2.211 15.684,1.594 5.269,-0.621 10.39,-2.141 15.425,-3.817 10.071,-3.351 20.383,-7.422 30.938,-6.297 9.742,1.036 18.398,6.372 27.238,10.598 4.418,2.113 8.996,3.984 13.809,4.906 4.808,0.922 9.89,0.856 14.492,-0.832 3.43,-1.261 6.477,-3.371 9.398,-5.562 2.926,-2.195 5.782,-4.512 8.985,-6.27 7.726,-4.238 17.324,-4.886 25.547,-1.73 v 16.578"
           style="fill:#ffffff;fill-opacity:1;fill-rule:nonzero;stroke:#0000ff;stroke-width:0.850394;stroke-linecap:butt;stroke-linejoin:miter;stroke-miterlimit:4;stroke-dasharray:none;stroke-opacity:1"
           id="path2869" />
      </g>
      <path
         d="M 0,71.313 H 11.398 V 22.965 H 0 Z"
         style="fill:#ffffff;fill-opacity:1;fill-rule:nonzero;stroke:none"
         id="path2871" />
      <path
         d="m 212.801,63.681 h 11.398 V 15.329 h -11.398 z"
         style="fill:#ffffff;fill-opacity:1;fill-rule:nonzero;stroke:none"
         id="path2873" />
      <g
         id="g2875"
         transform="matrix(1,0,0,-1,0,95.926643)">
        <path
           d="M 4.281,2.391 V 85.379"
           style="fill:none;stroke:#000000;stroke-width:0.850394;stroke-linecap:round;stroke-linejoin:miter;stroke-miterlimit:4;stroke-dasharray:none;stroke-opacity:1"
           id="path2877" />
      </g>
      <g
         id="g2879"
         transform="matrix(0,1,1,0,0,95.926643)">
        <path
           d="M -0.43,4.281 -3.371,5.98 V 2.582 Z"
           style="fill:#000000;fill-opacity:1;fill-rule:evenodd;stroke:#000000;stroke-width:0.425197;stroke-linecap:butt;stroke-linejoin:miter;stroke-miterlimit:4;stroke-dasharray:none;stroke-opacity:1"
           id="path2881" />
      </g>
      <g
         id="g2883"
         transform="matrix(1,0,0,-1,0,95.926643)">
        <path
           d="M 220.285,85.379 H 4.395"
           style="fill:none;stroke:#000000;stroke-width:0.850394;stroke-linecap:round;stroke-linejoin:miter;stroke-miterlimit:4;stroke-dasharray:none;stroke-opacity:1"
           id="path2885" />
      </g>
      <g
         id="g2887"
         transform="matrix(1,0,0,-1,0,95.926643)">
        <path
           d="m 222.246,85.379 -2.941,1.699 v -3.402 z"
           style="fill:#000000;fill-opacity:1;fill-rule:evenodd;stroke:#000000;stroke-width:0.425197;stroke-linecap:butt;stroke-linejoin:miter;stroke-miterlimit:4;stroke-dasharray:none;stroke-opacity:1"
           id="path2889" />
      </g>
      <g
         id="g2891"
         transform="matrix(1,0,0,-1,0,95.926643)">
        <path
           d="m 191.551,67.961 h 23.418 v 11.52 h -23.418 z"
           style="fill:#ffffff;fill-opacity:1;fill-rule:nonzero;stroke:#ffffff;stroke-width:0.850394;stroke-linecap:round;stroke-linejoin:miter;stroke-miterlimit:4;stroke-dasharray:none;stroke-opacity:1"
           id="path2893" />
      </g>
      <g
         id="g2895"
         transform="matrix(1,0,0,-1,0,95.926643)">
        <path
           d="M 122.617,48.922 146.043,23.781"
           style="fill:none;stroke:#000000;stroke-width:0.850394;stroke-linecap:butt;stroke-linejoin:miter;stroke-miterlimit:4;stroke-dasharray:none;stroke-opacity:1"
           id="path2897" />
      </g>
      <path
         d="m 70.883,83.446 0.012,-0.039 0.007,-0.027 0.02,-0.039 0.008,-0.039 0.019,-0.028 0.02,-0.031 0.019,-0.035 0.02,-0.031 0.019,-0.028 0.02,-0.031 0.047,-0.047 0.019,-0.027 0.028,-0.02 0.031,-0.019 0.019,-0.028 0.055,-0.039 0.039,-0.019 0.031,-0.012 0.028,-0.019 0.027,-0.008 0.039,-0.02 0.031,-0.008 0.036,-0.011 0.039,-0.008 0.031,-0.012 h 0.039 l 0.035,-0.008 h 0.039 l 0.039,-0.011 h 0.039 c 0.336,0 0.555,0.222 0.711,0.527 0.153,0.348 0.285,0.934 0.285,0.953 0,0.094 -0.086,0.094 -0.113,0.094 -0.098,0 -0.105,-0.035 -0.133,-0.172 -0.136,-0.539 -0.32,-1.191 -0.722,-1.191 -0.2,0 -0.297,0.125 -0.297,0.441 0,0.211 0.117,0.664 0.191,0.992 l 0.27,1.035 c 0.027,0.145 0.125,0.508 0.164,0.653 0.047,0.222 0.144,0.578 0.144,0.632 0,0.176 -0.136,0.262 -0.281,0.262 -0.047,0 -0.297,-0.012 -0.371,-0.336 -0.184,-0.691 -0.606,-2.363 -0.723,-2.871 -0.008,-0.039 -0.394,-0.808 -1.093,-0.808 -0.489,0 -0.586,0.433 -0.586,0.789 0,0.539 0.269,1.285 0.507,1.949 0.118,0.289 0.164,0.422 0.164,0.605 0,0.422 -0.296,0.778 -0.777,0.778 -0.91,0 -1.265,-1.383 -1.265,-1.469 0,-0.098 0.093,-0.098 0.113,-0.098 0.097,0 0.105,0.02 0.152,0.172 0.242,0.836 0.606,1.184 0.973,1.184 0.086,0 0.238,-0.012 0.238,-0.317 0,-0.222 -0.105,-0.5 -0.164,-0.644 -0.355,-0.949 -0.555,-1.535 -0.555,-2.008 0,-0.91 0.66,-1.152 1.18,-1.152 0.625,0 0.969,0.433 1.133,0.644 z"
         style="fill:#000000;fill-opacity:1;fill-rule:nonzero;stroke:none"
         id="path2899" />
      <path
         d="M 75.387,92.884 75.27,92.798 75.156,92.712 75.051,92.622 74.953,92.528 74.859,92.431 74.762,92.337 74.676,92.231 74.598,92.134 74.523,92.028 74.445,91.923 74.379,91.817 74.32,91.712 74.262,91.595 74.203,91.489 74.148,91.376 74.109,91.27 74.063,91.153 74.023,91.048 73.984,90.934 73.957,90.817 73.918,90.712 73.898,90.599 73.867,90.493 73.848,90.376 73.832,90.27 73.82,90.165 73.801,90.059 73.793,89.954 v -0.105 l -0.012,-0.094 v -0.203 c 0,-0.942 0.282,-2.399 1.606,-3.332 0.047,0 0.133,0 0.133,0.078 0,0.039 -0.02,0.058 -0.067,0.093 -0.894,0.809 -1.219,1.942 -1.219,3.161 0,1.797 0.692,2.679 1.239,3.175 0.027,0.02 0.047,0.051 0.047,0.079 0,0.078 -0.086,0.078 -0.133,0.078 z"
         style="fill:#000000;fill-opacity:1;fill-rule:nonzero;stroke:none"
         id="path2901" />
      <path
         d="m 78.938,92.048 v 0.019 l -0.008,0.008 v 0.039 l -0.012,0.012 v 0.019 l -0.008,0.008 v 0.008 l -0.012,0.012 v 0.008 l -0.007,0.011 -0.012,0.008 v 0.012 l -0.047,0.047 h -0.008 l -0.011,0.007 -0.02,0.012 h -0.008 l -0.012,0.008 h -0.019 l -0.008,0.012 h -0.027 l -0.02,0.008 h -0.031 c -0.191,0 -0.375,-0.192 -0.375,-0.364 0,-0.117 0.078,-0.258 0.27,-0.258 0.171,0 0.375,0.172 0.375,0.364 z"
         style="fill:#000000;fill-opacity:1;fill-rule:nonzero;stroke:none"
         id="path2903" />
      <path
         d="m 77.516,87.556 -0.008,-0.047 -0.02,-0.039 -0.011,-0.051 -0.016,-0.035 -0.012,-0.039 -0.078,-0.157 -0.027,-0.035 -0.02,-0.039 -0.027,-0.031 -0.02,-0.035 -0.058,-0.059 -0.028,-0.031 -0.031,-0.027 -0.027,-0.028 -0.028,-0.031 -0.031,-0.02 -0.039,-0.027 -0.027,-0.019 -0.039,-0.02 -0.028,-0.02 -0.039,-0.007 -0.027,-0.02 L 76.836,86.727 76.797,86.72 76.77,86.712 H 76.691 L 76.652,86.7 c -0.086,0 -0.164,0.02 -0.238,0.047 0.172,0.078 0.231,0.242 0.231,0.336 0,0.164 -0.125,0.25 -0.262,0.25 -0.211,0 -0.383,-0.18 -0.383,-0.391 0,-0.261 0.258,-0.426 0.664,-0.426 0.402,0 1.18,0.243 1.391,1.059 l 0.593,2.391 c 0.032,0.066 0.04,0.133 0.04,0.23 0,0.363 -0.317,0.621 -0.719,0.621 -0.739,0 -1.164,-0.922 -1.164,-1.015 0,-0.086 0.09,-0.086 0.105,-0.086 0.09,0 0.09,0.019 0.137,0.125 0.172,0.383 0.519,0.797 0.902,0.797 0.172,0 0.231,-0.118 0.231,-0.329 0,-0.078 -0.012,-0.164 -0.02,-0.199 z"
         style="fill:#000000;fill-opacity:1;fill-rule:nonzero;stroke:none"
         id="path2905" />
      <path
         d="m 80.148,92.884 h -0.07 v -0.012 h -0.015 l -0.012,-0.008 h -0.008 v -0.012 l -0.012,-0.007 v -0.02 h -0.008 v -0.019 c 0,-0.028 0.02,-0.059 0.067,-0.106 0.566,-0.519 1.211,-1.422 1.211,-3.148 0,-1.391 -0.434,-2.45 -1.153,-3.102 -0.117,-0.113 -0.125,-0.113 -0.125,-0.152 0,-0.032 0.02,-0.078 0.086,-0.078 0.086,0 0.719,0.441 1.161,1.277 0.289,0.547 0.492,1.266 0.492,2.055 0,0.941 -0.289,2.398 -1.614,3.332 z"
         style="fill:#000000;fill-opacity:1;fill-rule:nonzero;stroke:none"
         id="path2907" />
      <path
         d="m 75.105,84.454 v 0.027 l 0.012,0.012 v 0.039 h 0.008 v 0.035 c 0,0.032 -0.02,0.09 -0.105,0.09 -0.133,0 -0.692,-0.051 -0.852,-0.07 -0.059,0 -0.145,-0.008 -0.145,-0.153 0,-0.085 0.086,-0.085 0.172,-0.085 0.317,0 0.317,-0.047 0.317,-0.106 0,-0.047 -0.008,-0.086 -0.028,-0.144 l -0.941,-3.782 c -0.031,-0.117 -0.031,-0.136 -0.031,-0.144 0,-0.098 0.078,-0.211 0.222,-0.211 0.184,0 0.27,0.133 0.309,0.277 0.02,0.027 0.305,1.199 0.336,1.297 0.469,-0.047 0.851,-0.203 0.851,-0.547 0,-0.039 0,-0.066 -0.019,-0.137 -0.027,-0.093 -0.027,-0.132 -0.027,-0.211 0,-0.468 0.394,-0.679 0.711,-0.679 0.652,0 0.855,1.008 0.855,1.015 0,0.086 -0.086,0.086 -0.105,0.086 -0.098,0 -0.106,-0.027 -0.137,-0.16 -0.086,-0.281 -0.258,-0.758 -0.594,-0.758 -0.172,0 -0.23,0.172 -0.23,0.344 0,0.117 0,0.133 0.039,0.309 0.007,0.019 0.039,0.133 0.039,0.199 0,0.598 -0.809,0.691 -1.086,0.711 0.191,0.117 0.441,0.336 0.554,0.441 0.336,0.317 0.672,0.633 1.047,0.633 0.078,0 0.164,-0.019 0.223,-0.086 -0.289,-0.047 -0.348,-0.277 -0.348,-0.375 0,-0.14 0.118,-0.246 0.27,-0.246 0.183,0 0.375,0.152 0.375,0.43 0,0.222 -0.152,0.461 -0.508,0.461 -0.387,0 -0.73,-0.27 -1.078,-0.586 -0.277,-0.27 -0.496,-0.469 -0.766,-0.586 z"
         style="fill:#000000;fill-opacity:1;fill-rule:nonzero;stroke:none"
         id="path2909" />
      <path
         d="m 91.445,85.106 h 0.106 l 0.019,0.012 h 0.059 l 0.008,0.008 h 0.031 l 0.008,0.008 h 0.012 l 0.007,0.011 h 0.02 l 0.012,0.008 0.007,0.012 0.008,0.008 v 0.011 l 0.012,0.008 0.008,0.012 v 0.008 l 0.011,0.012 v 0.019 h 0.008 v 0.055 c 0,0.191 -0.172,0.191 -0.336,0.191 h -5.172 c -0.164,0 -0.335,0 -0.335,-0.191 0,-0.192 0.171,-0.192 0.335,-0.192 z"
         style="fill:#000000;fill-opacity:1;fill-rule:nonzero;stroke:none"
         id="path2911" />
      <path
         d="m 99.27,85.165 v 0.199 l -0.008,0.07 -0.012,0.125 -0.02,0.125 -0.019,0.114 -0.055,0.211 -0.039,0.097 -0.027,0.094 -0.051,0.086 -0.039,0.09 -0.047,0.074 -0.047,0.066 -0.058,0.071 -0.059,0.066 -0.047,0.059 -0.066,0.054 -0.059,0.051 -0.066,0.047 -0.059,0.047 -0.066,0.039 -0.067,0.027 -0.066,0.032 -0.07,0.027 -0.067,0.027 -0.078,0.02 -0.066,0.012 -0.067,0.019 -0.066,0.008 -0.066,0.012 h -0.137 c -1.313,0 -2.571,-1.364 -2.571,-2.707 0,-0.895 0.567,-1.625 1.543,-1.625 l 0.02,0.211 c -0.574,0 -0.863,0.433 -0.863,1.046 0,0.473 0.25,1.5 0.558,1.989 0.45,0.691 0.969,0.875 1.305,0.875 0.941,0 0.941,-1.25 0.941,-2 0,-0.356 0,-0.903 0.02,-1.063 -0.836,-0.742 -1.574,-0.847 -1.961,-0.847 l -0.02,-0.211 c 0.606,0 1.29,0.222 2.016,0.808 0.125,-0.511 0.441,-0.808 0.875,-0.808 0.508,0 0.805,0.527 0.805,0.683 0,0.067 -0.055,0.094 -0.114,0.094 -0.066,0 -0.097,-0.027 -0.125,-0.094 -0.171,-0.472 -0.519,-0.472 -0.539,-0.472 -0.296,0 -0.296,0.75 -0.296,0.98 0,0.203 0,0.223 0.097,0.336 0.903,1.125 1.102,2.238 1.102,2.246 0,0.02 -0.008,0.086 -0.114,0.086 -0.097,0 -0.097,-0.027 -0.144,-0.199 -0.172,-0.598 -0.488,-1.328 -0.941,-1.895 z"
         style="fill:#000000;fill-opacity:1;fill-rule:nonzero;stroke:none"
         id="path2913" />
      <path
         d="m 105.367,86.516 0.008,0.012 v 0.028 l 0.012,0.019 v 0.02 l 0.008,0.011 v 0.075 c 0,0.164 -0.114,0.261 -0.278,0.261 -0.097,0 -0.347,-0.07 -0.383,-0.406 -0.175,0.348 -0.511,0.598 -0.894,0.598 l 0.008,-0.211 c 0.636,0 0.769,-0.77 0.769,-0.817 0,-0.05 -0.019,-0.105 -0.027,-0.144 l -0.461,-1.824 c -0.059,-0.25 -0.281,-0.489 -0.492,-0.672 -0.199,-0.172 -0.496,-0.348 -0.778,-0.348 -0.48,0 -0.621,0.5 -0.621,0.883 0,0.453 0.278,1.586 0.535,2.074 0.262,0.473 0.672,0.848 1.075,0.848 l -0.008,0.211 c -1.094,0 -2.274,-1.336 -2.274,-2.707 0,-0.953 0.575,-1.52 1.266,-1.52 0.566,0 1.016,0.453 1.113,0.559 l 0.012,-0.012 c -0.203,-0.852 -0.32,-1.238 -0.32,-1.258 -0.035,-0.086 -0.364,-1.035 -1.379,-1.035 -0.176,0 -0.492,0.012 -0.762,0.098 0.289,0.086 0.395,0.336 0.395,0.496 0,0.156 -0.106,0.336 -0.364,0.336 -0.211,0 -0.519,-0.172 -0.519,-0.555 0,-0.395 0.355,-0.586 1.265,-0.586 1.204,0 1.895,0.75 2.036,1.324 z"
         style="fill:#000000;fill-opacity:1;fill-rule:nonzero;stroke:none"
         id="path2915" />
      <path
         d="m 108.141,92.884 -0.114,-0.086 -0.117,-0.086 -0.105,-0.09 -0.098,-0.094 -0.094,-0.097 -0.097,-0.094 -0.086,-0.106 -0.075,-0.097 -0.156,-0.211 -0.066,-0.106 -0.059,-0.105 -0.054,-0.117 -0.059,-0.106 -0.051,-0.113 -0.047,-0.106 -0.047,-0.117 -0.039,-0.105 -0.039,-0.114 -0.027,-0.117 -0.031,-0.105 -0.028,-0.113 -0.027,-0.106 -0.02,-0.117 -0.019,-0.106 -0.012,-0.105 -0.015,-0.106 -0.012,-0.105 v -0.105 l -0.008,-0.094 v -0.203 c 0,-0.942 0.277,-2.399 1.602,-3.332 0.047,0 0.132,0 0.132,0.078 0,0.039 -0.015,0.058 -0.066,0.093 -0.891,0.809 -1.219,1.942 -1.219,3.161 0,1.797 0.692,2.679 1.239,3.175 0.031,0.02 0.046,0.051 0.046,0.079 0,0.078 -0.085,0.078 -0.132,0.078 z"
         style="fill:#000000;fill-opacity:1;fill-rule:nonzero;stroke:none"
         id="path2917" />
      <path
         d="m 111.691,92.048 v 0.019 l -0.007,0.008 v 0.039 l -0.012,0.012 v 0.019 l -0.008,0.008 v 0.008 l -0.008,0.012 v 0.008 l -0.019,0.019 v 0.012 l -0.012,0.008 -0.008,0.011 -0.012,0.008 -0.007,0.012 -0.012,0.008 h -0.008 l -0.012,0.007 -0.019,0.012 h -0.008 l -0.008,0.008 h -0.019 l -0.012,0.012 h -0.027 l -0.02,0.008 h -0.027 c -0.196,0 -0.375,-0.192 -0.375,-0.364 0,-0.117 0.074,-0.258 0.269,-0.258 0.172,0 0.371,0.172 0.371,0.364 z"
         style="fill:#000000;fill-opacity:1;fill-rule:nonzero;stroke:none"
         id="path2919" />
      <path
         d="m 110.273,87.556 -0.011,-0.047 -0.02,-0.039 -0.008,-0.051 -0.019,-0.035 -0.012,-0.039 -0.015,-0.039 -0.059,-0.118 -0.031,-0.035 -0.02,-0.039 -0.027,-0.031 -0.02,-0.035 -0.027,-0.032 -0.031,-0.027 -0.028,-0.031 -0.027,-0.027 -0.031,-0.028 -0.028,-0.031 -0.027,-0.02 -0.039,-0.027 -0.031,-0.019 -0.035,-0.02 -0.032,-0.02 -0.039,-0.007 -0.027,-0.02 -0.039,-0.012 -0.039,-0.007 -0.028,-0.008 h -0.078 L 109.406,86.7 c -0.086,0 -0.16,0.02 -0.238,0.047 0.172,0.078 0.23,0.242 0.23,0.336 0,0.164 -0.132,0.25 -0.257,0.25 -0.211,0 -0.387,-0.18 -0.387,-0.391 0,-0.261 0.262,-0.426 0.664,-0.426 0.402,0 1.18,0.243 1.391,1.059 l 0.597,2.391 c 0.02,0.066 0.035,0.133 0.035,0.23 0,0.363 -0.316,0.621 -0.718,0.621 -0.739,0 -1.172,-0.922 -1.172,-1.015 0,-0.086 0.097,-0.086 0.117,-0.086 0.086,0 0.086,0.019 0.133,0.125 0.172,0.383 0.519,0.797 0.902,0.797 0.172,0 0.231,-0.118 0.231,-0.329 0,-0.078 -0.008,-0.164 -0.02,-0.199 z"
         style="fill:#000000;fill-opacity:1;fill-rule:nonzero;stroke:none"
         id="path2921" />
      <path
         d="m 112.91,92.884 h -0.074 v -0.012 h -0.02 l -0.011,-0.008 h -0.008 v -0.012 l -0.008,-0.007 v -0.02 l -0.012,-0.008 v -0.011 c 0,-0.028 0.02,-0.059 0.067,-0.106 0.578,-0.519 1.211,-1.422 1.211,-3.148 0,-1.391 -0.434,-2.45 -1.153,-3.102 -0.113,-0.113 -0.125,-0.113 -0.125,-0.152 0,-0.032 0.02,-0.078 0.086,-0.078 0.086,0 0.723,0.441 1.164,1.277 0.297,0.547 0.489,1.266 0.489,2.055 0,0.941 -0.278,2.398 -1.606,3.332 z"
         style="fill:#000000;fill-opacity:1;fill-rule:nonzero;stroke:none"
         id="path2923" />
      <path
         d="m 107.516,84.454 v 0.02 l 0.011,0.007 v 0.032 l 0.008,0.007 v 0.039 h 0.012 v 0.008 c 0,0.032 -0.031,0.09 -0.117,0.09 -0.125,0 -0.68,-0.051 -0.856,-0.07 -0.047,0 -0.14,-0.008 -0.14,-0.153 0,-0.085 0.093,-0.085 0.171,-0.085 0.317,0 0.317,-0.047 0.317,-0.106 0,-0.047 -0.012,-0.086 -0.02,-0.144 l -0.949,-3.782 c -0.031,-0.117 -0.031,-0.136 -0.031,-0.144 0,-0.098 0.078,-0.211 0.23,-0.211 0.184,0 0.27,0.133 0.309,0.277 0.008,0.027 0.297,1.199 0.328,1.297 0.469,-0.047 0.852,-0.203 0.852,-0.547 0,-0.039 0,-0.066 -0.008,-0.137 -0.031,-0.093 -0.031,-0.132 -0.031,-0.211 0,-0.468 0.386,-0.679 0.711,-0.679 0.644,0 0.847,1.008 0.847,1.015 0,0.086 -0.09,0.086 -0.105,0.086 -0.098,0 -0.098,-0.027 -0.137,-0.16 -0.078,-0.281 -0.258,-0.758 -0.586,-0.758 -0.18,0 -0.238,0.172 -0.238,0.344 0,0.117 0,0.133 0.047,0.309 0,0.019 0.027,0.133 0.027,0.199 0,0.598 -0.805,0.691 -1.082,0.711 0.191,0.117 0.441,0.336 0.555,0.441 0.347,0.317 0.672,0.633 1.047,0.633 0.085,0 0.171,-0.019 0.222,-0.086 -0.289,-0.047 -0.347,-0.277 -0.347,-0.375 0,-0.14 0.117,-0.246 0.269,-0.246 0.184,0 0.383,0.152 0.383,0.43 0,0.222 -0.16,0.461 -0.516,0.461 -0.386,0 -0.73,-0.27 -1.066,-0.586 -0.289,-0.27 -0.508,-0.469 -0.778,-0.586 z"
         style="fill:#000000;fill-opacity:1;fill-rule:nonzero;stroke:none"
         id="path2925" />
      <path
         d="m 79.961,20.782 0.008,-0.039 0.011,-0.027 0.02,-0.039 0.008,-0.039 0.019,-0.028 0.02,-0.031 0.019,-0.035 0.02,-0.031 0.039,-0.055 0.016,-0.02 0.031,-0.031 0.019,-0.027 0.055,-0.039 0.02,-0.028 0.031,-0.019 0.027,-0.02 0.039,-0.019 0.028,-0.012 0.031,-0.016 0.027,-0.011 0.039,-0.02 0.028,-0.008 0.039,-0.011 0.039,-0.008 0.027,-0.012 h 0.039 l 0.039,-0.008 h 0.039 l 0.039,-0.011 h 0.036 c 0.339,0 0.558,0.222 0.71,0.531 0.157,0.344 0.29,0.93 0.29,0.949 0,0.094 -0.086,0.094 -0.114,0.094 -0.097,0 -0.105,-0.035 -0.136,-0.172 -0.133,-0.535 -0.317,-1.191 -0.719,-1.191 -0.203,0 -0.297,0.125 -0.297,0.445 0,0.211 0.113,0.66 0.191,0.988 l 0.27,1.035 c 0.027,0.145 0.125,0.508 0.16,0.653 0.051,0.222 0.145,0.578 0.145,0.632 0,0.176 -0.133,0.262 -0.278,0.262 -0.047,0 -0.297,-0.012 -0.375,-0.336 -0.183,-0.691 -0.605,-2.363 -0.719,-2.871 -0.011,-0.039 -0.394,-0.808 -1.093,-0.808 -0.493,0 -0.586,0.433 -0.586,0.789 0,0.539 0.269,1.285 0.508,1.949 0.117,0.289 0.164,0.422 0.164,0.605 0,0.422 -0.297,0.778 -0.778,0.778 -0.914,0 -1.269,-1.383 -1.269,-1.469 0,-0.098 0.097,-0.098 0.117,-0.098 0.094,0 0.105,0.02 0.152,0.172 0.242,0.836 0.606,1.184 0.969,1.184 0.086,0 0.242,-0.012 0.242,-0.317 0,-0.222 -0.105,-0.5 -0.164,-0.644 -0.355,-0.949 -0.558,-1.535 -0.558,-2.008 0,-0.91 0.664,-1.152 1.183,-1.152 0.625,0 0.969,0.433 1.133,0.644 z"
         style="fill:#0000ff;fill-opacity:1;fill-rule:nonzero;stroke:none"
         id="path2927" />
      <path
         d="M 84.461,30.22 84.348,30.134 84.23,30.048 84.125,29.962 84.031,29.864 83.84,29.673 83.754,29.567 83.676,29.47 83.598,29.364 83.523,29.259 83.453,29.153 83.398,29.048 83.34,28.934 83.281,28.829 83.223,28.712 83.188,28.606 83.137,28.493 83.098,28.388 83.063,28.27 83.031,28.157 82.992,28.048 82.973,27.934 82.945,27.829 82.926,27.712 82.906,27.606 82.898,27.501 82.879,27.395 82.867,27.29 v -0.106 l -0.008,-0.093 v -0.203 c 0,-0.942 0.278,-2.399 1.602,-3.332 0.051,0 0.137,0 0.137,0.078 0,0.039 -0.02,0.058 -0.067,0.097 -0.894,0.805 -1.222,1.938 -1.222,3.157 0,1.796 0.691,2.679 1.238,3.179 0.031,0.016 0.051,0.047 0.051,0.074 0,0.079 -0.086,0.079 -0.137,0.079 z"
         style="fill:#0000ff;fill-opacity:1;fill-rule:nonzero;stroke:none"
         id="path2929" />
      <path
         d="m 88.016,29.384 v 0.019 l -0.012,0.008 v 0.039 l -0.008,0.012 v 0.019 l -0.012,0.008 v 0.012 l -0.007,0.008 v 0.007 l -0.02,0.02 v 0.012 l -0.012,0.008 -0.007,0.011 -0.028,0.028 h -0.012 l -0.007,0.011 -0.02,0.008 h -0.012 l -0.007,0.012 h -0.02 l -0.008,0.008 h -0.031 l -0.02,0.007 h -0.027 c -0.191,0 -0.375,-0.191 -0.375,-0.363 0,-0.113 0.078,-0.258 0.27,-0.258 0.172,0 0.375,0.172 0.375,0.364 z"
         style="fill:#0000ff;fill-opacity:1;fill-rule:nonzero;stroke:none"
         id="path2931" />
      <path
         d="m 86.594,24.891 -0.008,-0.046 -0.02,-0.039 -0.011,-0.047 -0.02,-0.039 -0.008,-0.039 -0.058,-0.118 -0.02,-0.035 -0.027,-0.039 -0.02,-0.039 -0.031,-0.027 -0.016,-0.039 -0.058,-0.059 -0.031,-0.027 -0.028,-0.032 -0.058,-0.058 -0.028,-0.016 -0.039,-0.031 -0.027,-0.02 -0.039,-0.019 -0.027,-0.02 -0.04,-0.007 -0.031,-0.02 -0.039,-0.008 -0.035,-0.011 -0.031,-0.008 H 85.77 l -0.04,-0.012 c -0.085,0 -0.164,0.02 -0.242,0.047 0.176,0.078 0.231,0.242 0.231,0.34 0,0.16 -0.125,0.246 -0.258,0.246 -0.211,0 -0.383,-0.18 -0.383,-0.391 0,-0.262 0.258,-0.422 0.66,-0.422 0.403,0 1.184,0.239 1.395,1.055 l 0.594,2.391 c 0.027,0.066 0.039,0.132 0.039,0.23 0,0.363 -0.317,0.625 -0.723,0.625 -0.738,0 -1.16,-0.922 -1.16,-1.019 0,-0.086 0.086,-0.086 0.105,-0.086 0.086,0 0.086,0.019 0.137,0.125 0.172,0.382 0.516,0.797 0.902,0.797 0.172,0 0.231,-0.118 0.231,-0.329 0,-0.074 -0.012,-0.164 -0.02,-0.199 z"
         style="fill:#0000ff;fill-opacity:1;fill-rule:nonzero;stroke:none"
         id="path2933" />
      <path
         d="m 93.602,26.724 h 0.105 l 0.02,0.011 h 0.027 l 0.012,0.008 h 0.019 l 0.008,0.012 h 0.012 l 0.019,0.019 h 0.008 v 0.008 l 0.008,0.012 0.012,0.008 v 0.007 l 0.007,0.012 v 0.02 l 0.012,0.008 v 0.039 c 0,0.164 -0.152,0.164 -0.269,0.164 h -3.985 c -0.105,0 -0.269,0 -0.269,-0.164 0,-0.164 0.156,-0.164 0.269,-0.164 z"
         style="fill:#0000ff;fill-opacity:1;fill-rule:nonzero;stroke:none"
         id="path2935" />
      <path
         d="m 96.848,29.462 v 0.086 h -0.012 v 0.047 h -0.008 v 0.019 h -0.012 v 0.012 h -0.007 l -0.012,0.008 h -0.008 l -0.012,0.007 H 96.645 C 96.211,29.231 95.609,29.22 95.328,29.22 v -0.239 c 0.164,0 0.606,0 0.973,0.184 v -3.399 c 0,-0.222 0,-0.308 -0.664,-0.308 h -0.258 v -0.242 c 0.125,0.011 0.941,0.031 1.187,0.031 0.211,0 1.059,-0.02 1.204,-0.031 v 0.242 h -0.25 c -0.672,0 -0.672,0.086 -0.672,0.308 z"
         style="fill:#0000ff;fill-opacity:1;fill-rule:nonzero;stroke:none"
         id="path2937" />
      <path
         d="M 99.016,30.22 H 98.949 L 98.938,30.208 H 98.922 V 30.2 H 98.91 v -0.008 h -0.008 v -0.019 h -0.011 v -0.032 c 0,-0.027 0.019,-0.058 0.058,-0.105 0.574,-0.52 1.219,-1.422 1.219,-3.148 0,-1.391 -0.434,-2.45 -1.152,-3.102 -0.114,-0.113 -0.125,-0.113 -0.125,-0.152 0,-0.028 0.019,-0.078 0.086,-0.078 0.086,0 0.722,0.441 1.164,1.277 0.285,0.547 0.488,1.269 0.488,2.055 0,0.941 -0.289,2.402 -1.613,3.332 z"
         style="fill:#0000ff;fill-opacity:1;fill-rule:nonzero;stroke:none"
         id="path2939" />
      <path
         d="m 84.184,21.79 v 0.031 l 0.011,0.008 v 0.039 h 0.008 v 0.039 c 0,0.027 -0.019,0.086 -0.105,0.086 -0.133,0 -0.692,-0.051 -0.856,-0.066 -0.054,0 -0.144,-0.012 -0.144,-0.157 0,-0.086 0.09,-0.086 0.175,-0.086 0.317,0 0.317,-0.046 0.317,-0.105 0,-0.047 -0.012,-0.086 -0.031,-0.145 L 82.621,17.653 C 82.59,17.536 82.59,17.516 82.59,17.509 c 0,-0.098 0.078,-0.211 0.223,-0.211 0.179,0 0.265,0.133 0.304,0.277 0.02,0.031 0.309,1.199 0.336,1.297 0.473,-0.047 0.856,-0.203 0.856,-0.547 0,-0.039 0,-0.066 -0.02,-0.133 -0.027,-0.097 -0.027,-0.136 -0.027,-0.215 0,-0.468 0.394,-0.679 0.711,-0.679 0.652,0 0.851,1.008 0.851,1.015 0,0.09 -0.086,0.09 -0.105,0.09 -0.094,0 -0.106,-0.031 -0.133,-0.164 -0.086,-0.277 -0.258,-0.758 -0.594,-0.758 -0.176,0 -0.23,0.172 -0.23,0.344 0,0.117 0,0.137 0.035,0.309 0.012,0.019 0.039,0.132 0.039,0.199 0,0.598 -0.805,0.691 -1.082,0.711 0.191,0.117 0.441,0.336 0.555,0.441 0.336,0.317 0.671,0.637 1.046,0.637 0.079,0 0.165,-0.02 0.219,-0.09 -0.285,-0.047 -0.344,-0.277 -0.344,-0.371 0,-0.145 0.114,-0.25 0.27,-0.25 0.18,0 0.375,0.152 0.375,0.43 0,0.222 -0.156,0.461 -0.512,0.461 -0.383,0 -0.726,-0.27 -1.074,-0.586 -0.277,-0.27 -0.5,-0.469 -0.766,-0.586 z"
         style="fill:#0000ff;fill-opacity:1;fill-rule:nonzero;stroke:none"
         id="path2941" />
      <path
         d="m 110.316,22.442 h 0.106 l 0.019,0.012 h 0.055 l 0.012,0.008 h 0.027 l 0.012,0.012 h 0.008 l 0.011,0.007 h 0.008 l 0.059,0.059 v 0.008 l 0.008,0.011 v 0.02 l 0.011,0.008 v 0.047 c 0,0.195 -0.175,0.195 -0.336,0.195 h -5.175 c -0.164,0 -0.336,0 -0.336,-0.195 0,-0.192 0.172,-0.192 0.336,-0.192 z"
         style="fill:#0000ff;fill-opacity:1;fill-rule:nonzero;stroke:none"
         id="path2943" />
      <path
         d="m 118.141,22.501 v 0.144 l -0.012,0.059 v 0.066 l -0.008,0.125 -0.019,0.125 -0.02,0.114 -0.027,0.105 -0.032,0.106 -0.039,0.097 -0.039,0.094 -0.035,0.09 -0.039,0.086 -0.047,0.074 -0.058,0.07 -0.047,0.067 -0.059,0.066 -0.058,0.059 -0.059,0.054 -0.055,0.051 -0.07,0.047 -0.055,0.047 -0.07,0.039 -0.066,0.027 -0.067,0.032 -0.066,0.027 -0.078,0.031 -0.067,0.02 -0.066,0.008 -0.07,0.019 -0.067,0.008 -0.074,0.012 h -0.137 c -1.305,0 -2.57,-1.364 -2.57,-2.707 0,-0.895 0.574,-1.625 1.555,-1.625 l 0.019,0.211 c -0.578,0 -0.867,0.433 -0.867,1.046 0,0.473 0.25,1.5 0.558,1.989 0.45,0.691 0.969,0.875 1.297,0.875 0.95,0 0.95,-1.25 0.95,-1.996 0,-0.356 0,-0.903 0.019,-1.067 -0.844,-0.738 -1.574,-0.847 -1.957,-0.847 l -0.019,-0.211 c 0.605,0 1.285,0.222 2.015,0.808 0.125,-0.508 0.442,-0.808 0.871,-0.808 0.512,0 0.797,0.531 0.797,0.683 0,0.067 -0.047,0.094 -0.105,0.094 -0.067,0 -0.094,-0.027 -0.125,-0.094 -0.172,-0.472 -0.516,-0.472 -0.535,-0.472 -0.297,0 -0.297,0.75 -0.297,0.98 0,0.203 0,0.223 0.093,0.336 0.903,1.125 1.094,2.238 1.094,2.246 0,0.02 -0.008,0.086 -0.105,0.086 -0.094,0 -0.094,-0.027 -0.145,-0.199 -0.172,-0.598 -0.488,-1.324 -0.937,-1.891 z"
         style="fill:#0000ff;fill-opacity:1;fill-rule:nonzero;stroke:none"
         id="path2945" />
      <path
         d="m 124.234,23.856 v 0.008 l 0.012,0.008 v 0.019 l 0.008,0.02 v 0.031 l 0.012,0.008 v 0.066 c 0,0.165 -0.118,0.262 -0.282,0.262 -0.093,0 -0.355,-0.07 -0.39,-0.406 -0.164,0.348 -0.5,0.598 -0.887,0.598 l 0.012,-0.211 c 0.625,0 0.769,-0.77 0.769,-0.817 0,-0.047 -0.031,-0.105 -0.031,-0.144 l -0.461,-1.824 c -0.058,-0.25 -0.277,-0.489 -0.488,-0.672 -0.203,-0.172 -0.5,-0.344 -0.778,-0.344 -0.48,0 -0.625,0.496 -0.625,0.883 0,0.449 0.278,1.582 0.54,2.07 0.257,0.473 0.671,0.848 1.074,0.848 l -0.012,0.211 c -1.094,0 -2.273,-1.336 -2.273,-2.707 0,-0.954 0.574,-1.52 1.265,-1.52 0.567,0 1.02,0.453 1.114,0.559 l 0.011,-0.008 c -0.203,-0.856 -0.316,-1.238 -0.316,-1.258 -0.039,-0.09 -0.367,-1.039 -1.383,-1.039 -0.184,0 -0.5,0.012 -0.758,0.098 0.278,0.086 0.383,0.336 0.383,0.5 0,0.152 -0.105,0.336 -0.355,0.336 -0.211,0 -0.52,-0.176 -0.52,-0.559 0,-0.395 0.348,-0.586 1.27,-0.586 1.199,0 1.89,0.75 2.035,1.324 z"
         style="fill:#0000ff;fill-opacity:1;fill-rule:nonzero;stroke:none"
         id="path2947" />
      <path
         d="m 127,30.22 -0.113,-0.086 -0.11,-0.086 -0.105,-0.086 -0.106,-0.098 -0.093,-0.098 -0.086,-0.093 -0.086,-0.106 -0.078,-0.097 -0.078,-0.106 -0.075,-0.105 -0.07,-0.106 -0.066,-0.105 -0.059,-0.114 -0.047,-0.105 -0.058,-0.117 -0.047,-0.106 -0.039,-0.113 -0.039,-0.105 -0.036,-0.118 -0.039,-0.113 -0.031,-0.109 -0.016,-0.114 -0.031,-0.105 -0.019,-0.117 -0.039,-0.211 -0.008,-0.106 -0.012,-0.105 -0.008,-0.106 v -0.199 l -0.008,-0.097 c 0,-0.942 0.286,-2.399 1.602,-3.332 0.059,0 0.145,0 0.145,0.078 0,0.039 -0.032,0.058 -0.079,0.097 -0.882,0.805 -1.207,1.938 -1.207,3.157 0,1.796 0.688,2.679 1.239,3.179 0.015,0.016 0.047,0.047 0.047,0.074 0,0.079 -0.086,0.079 -0.145,0.079 z"
         style="fill:#0000ff;fill-opacity:1;fill-rule:nonzero;stroke:none"
         id="path2949" />
      <path
         d="m 130.551,29.384 v 0.058 l -0.008,0.008 v 0.031 l -0.012,0.008 v 0.012 l -0.008,0.008 v 0.007 l -0.019,0.02 -0.008,0.012 v 0.008 l -0.039,0.039 h -0.012 l -0.019,0.011 -0.008,0.008 h -0.012 l -0.008,0.012 h -0.019 l -0.008,0.008 h -0.031 l -0.02,0.007 h -0.027 c -0.203,0 -0.375,-0.191 -0.375,-0.363 0,-0.113 0.078,-0.258 0.258,-0.258 0.183,0 0.375,0.172 0.375,0.364 z"
         style="fill:#0000ff;fill-opacity:1;fill-rule:nonzero;stroke:none"
         id="path2951" />
      <path
         d="m 129.141,24.891 -0.008,-0.046 -0.02,-0.039 -0.011,-0.047 -0.02,-0.039 -0.008,-0.039 -0.058,-0.118 -0.028,-0.035 -0.039,-0.078 -0.027,-0.027 -0.031,-0.039 -0.02,-0.032 -0.027,-0.027 -0.031,-0.027 -0.028,-0.032 -0.058,-0.058 -0.036,-0.016 -0.031,-0.031 -0.027,-0.02 -0.039,-0.019 -0.028,-0.02 -0.039,-0.007 -0.031,-0.02 -0.035,-0.008 -0.039,-0.011 -0.039,-0.008 h -0.067 l -0.039,-0.012 c -0.086,0 -0.164,0.02 -0.242,0.047 0.176,0.078 0.231,0.242 0.231,0.34 0,0.16 -0.133,0.246 -0.266,0.246 -0.203,0 -0.375,-0.18 -0.375,-0.391 0,-0.262 0.258,-0.422 0.66,-0.422 0.395,0 1.184,0.239 1.383,1.055 l 0.605,2.391 c 0.02,0.066 0.04,0.132 0.04,0.23 0,0.363 -0.317,0.625 -0.719,0.625 -0.742,0 -1.172,-0.922 -1.172,-1.019 0,-0.086 0.094,-0.086 0.113,-0.086 0.086,0 0.086,0.019 0.137,0.125 0.16,0.382 0.516,0.797 0.902,0.797 0.16,0 0.231,-0.118 0.231,-0.329 0,-0.074 -0.02,-0.164 -0.02,-0.199 z"
         style="fill:#0000ff;fill-opacity:1;fill-rule:nonzero;stroke:none"
         id="path2953" />
      <path
         d="m 136.148,26.724 h 0.106 l 0.012,0.011 h 0.035 l 0.012,0.008 h 0.019 l 0.008,0.012 h 0.012 l 0.027,0.027 v 0.012 h 0.012 v 0.008 h 0.007 v 0.019 h 0.008 v 0.039 l 0.012,0.008 v 0.02 c 0,0.164 -0.152,0.164 -0.27,0.164 h -3.984 c -0.113,0 -0.269,0 -0.269,-0.164 0,-0.164 0.156,-0.164 0.269,-0.164 z"
         style="fill:#0000ff;fill-opacity:1;fill-rule:nonzero;stroke:none"
         id="path2955" />
      <path
         d="m 139.395,29.462 v 0.054 l -0.012,0.012 v 0.059 l -0.008,0.008 v 0.011 l -0.012,0.008 -0.008,0.012 -0.011,0.008 h -0.008 l -0.008,0.007 h -0.137 c -0.429,-0.41 -1.035,-0.421 -1.316,-0.421 v -0.239 c 0.164,0 0.605,0 0.973,0.184 v -3.399 c 0,-0.222 0,-0.308 -0.664,-0.308 h -0.258 v -0.242 c 0.125,0.011 0.941,0.031 1.187,0.031 0.215,0 1.047,-0.02 1.203,-0.031 v 0.242 h -0.261 c -0.66,0 -0.66,0.086 -0.66,0.308 z"
         style="fill:#0000ff;fill-opacity:1;fill-rule:nonzero;stroke:none"
         id="path2957" />
      <path
         d="m 141.563,30.22 h -0.067 l -0.008,-0.012 h -0.019 V 30.2 h -0.012 v -0.008 h -0.008 v -0.011 l -0.011,-0.008 v -0.032 c 0,-0.027 0.019,-0.058 0.058,-0.105 0.574,-0.52 1.219,-1.422 1.219,-3.148 0,-1.391 -0.43,-2.45 -1.16,-3.102 -0.106,-0.113 -0.117,-0.113 -0.117,-0.152 0,-0.028 0.019,-0.078 0.085,-0.078 0.079,0 0.723,0.441 1.153,1.277 0.297,0.547 0.492,1.269 0.492,2.055 0,0.941 -0.281,2.402 -1.605,3.332 z"
         style="fill:#0000ff;fill-opacity:1;fill-rule:nonzero;stroke:none"
         id="path2959" />
      <path
         d="m 126.387,21.79 v 0.031 h 0.008 v 0.035 l 0.011,0.012 v 0.039 c 0,0.027 -0.019,0.086 -0.105,0.086 -0.137,0 -0.684,-0.051 -0.856,-0.066 -0.058,0 -0.144,-0.012 -0.144,-0.157 0,-0.086 0.086,-0.086 0.172,-0.086 0.316,0 0.316,-0.046 0.316,-0.105 0,-0.047 -0.008,-0.086 -0.019,-0.145 l -0.95,-3.781 c -0.027,-0.117 -0.027,-0.137 -0.027,-0.144 0,-0.098 0.074,-0.211 0.23,-0.211 0.172,0 0.258,0.133 0.305,0.277 0.012,0.031 0.301,1.199 0.328,1.297 0.469,-0.047 0.856,-0.203 0.856,-0.547 0,-0.039 0,-0.066 -0.02,-0.133 -0.019,-0.097 -0.019,-0.136 -0.019,-0.215 0,-0.468 0.382,-0.679 0.711,-0.679 0.64,0 0.843,1.008 0.843,1.015 0,0.09 -0.086,0.09 -0.105,0.09 -0.098,0 -0.106,-0.031 -0.133,-0.164 -0.09,-0.277 -0.262,-0.758 -0.586,-0.758 -0.183,0 -0.242,0.172 -0.242,0.344 0,0.117 0,0.137 0.039,0.309 0.008,0.019 0.039,0.132 0.039,0.199 0,0.598 -0.809,0.691 -1.086,0.711 0.192,0.117 0.442,0.336 0.559,0.441 0.336,0.317 0.672,0.637 1.047,0.637 0.074,0 0.171,-0.02 0.218,-0.09 -0.289,-0.047 -0.343,-0.277 -0.343,-0.371 0,-0.145 0.113,-0.25 0.265,-0.25 0.184,0 0.387,0.152 0.387,0.43 0,0.222 -0.164,0.461 -0.52,0.461 -0.382,0 -0.73,-0.27 -1.074,-0.586 -0.281,-0.27 -0.5,-0.469 -0.769,-0.586 z"
         style="fill:#0000ff;fill-opacity:1;fill-rule:nonzero;stroke:none"
         id="path2961" />
      <path
         d="m 152.473,78.509 v -2.563 c 0,-0.433 -0.106,-0.433 -0.746,-0.433 v -0.297 c 0.336,0.011 0.824,0.039 1.082,0.039 0.25,0 0.742,-0.028 1.066,-0.039 v 0.297 c -0.633,0 -0.738,0 -0.738,0.433 v 1.758 c 0,0.996 0.672,1.535 1.285,1.535 0.605,0 0.711,-0.519 0.711,-1.066 v -2.227 c 0,-0.433 -0.106,-0.433 -0.746,-0.433 v -0.297 c 0.336,0.011 0.824,0.039 1.082,0.039 0.25,0 0.75,-0.028 1.066,-0.039 v 0.297 c -0.633,0 -0.738,0 -0.738,0.433 v 1.758 c 0,0.996 0.68,1.535 1.285,1.535 0.606,0 0.711,-0.519 0.711,-1.066 v -2.227 c 0,-0.433 -0.105,-0.433 -0.75,-0.433 v -0.297 c 0.336,0.011 0.828,0.039 1.086,0.039 0.25,0 0.75,-0.028 1.074,-0.039 v 0.297 c -0.5,0 -0.738,0 -0.746,0.289 v 1.824 c 0,0.824 0,1.125 -0.301,1.469 -0.133,0.152 -0.449,0.347 -1.008,0.347 -0.796,0 -1.218,-0.566 -1.382,-0.933 -0.133,0.828 -0.844,0.933 -1.274,0.933 -0.703,0 -1.144,-0.406 -1.414,-1 v 1 l -1.351,-0.105 v -0.289 c 0.671,0 0.746,-0.067 0.746,-0.539 z"
         style="fill:#000000;fill-opacity:1;fill-rule:nonzero;stroke:none"
         id="path2963" />
      <path
         d="m 161.086,79.442 -1.344,-0.105 v -0.289 c 0.625,0 0.711,-0.059 0.711,-0.528 v -2.574 c 0,-0.433 -0.105,-0.433 -0.75,-0.433 v -0.297 c 0.309,0.011 0.824,0.039 1.055,0.039 0.336,0 0.672,-0.028 1,-0.039 v 0.297 c -0.633,0 -0.672,0.05 -0.672,0.425 z"
         style="fill:#000000;fill-opacity:1;fill-rule:nonzero;stroke:none"
         id="path2965" />
      <path
         d="m 161.125,81.11 v 0.047 l -0.012,0.031 v 0.028 l -0.008,0.031 -0.011,0.016 -0.008,0.031 -0.012,0.019 -0.008,0.028 -0.007,0.019 -0.012,0.02 -0.02,0.019 -0.007,0.02 -0.02,0.019 -0.012,0.02 -0.035,0.035 -0.019,0.012 -0.02,0.019 -0.019,0.008 -0.02,0.012 -0.02,0.008 -0.027,0.019 -0.019,0.012 h -0.02 l -0.031,0.008 -0.02,0.011 h -0.027 l -0.02,0.008 h -0.074 c -0.301,0 -0.512,-0.25 -0.512,-0.5 0,-0.258 0.211,-0.508 0.512,-0.508 0.266,0 0.508,0.204 0.508,0.508 z"
         style="fill:#000000;fill-opacity:1;fill-rule:nonzero;stroke:none"
         id="path2967" />
      <path
         d="m 163.102,78.509 v -2.563 c 0,-0.433 -0.106,-0.433 -0.75,-0.433 v -0.297 c 0.336,0.011 0.828,0.039 1.086,0.039 0.25,0 0.738,-0.028 1.066,-0.039 v 0.297 c -0.633,0 -0.738,0 -0.738,0.433 v 1.758 c 0,0.996 0.672,1.535 1.285,1.535 0.605,0 0.711,-0.519 0.711,-1.066 v -2.227 c 0,-0.433 -0.106,-0.433 -0.75,-0.433 v -0.297 c 0.336,0.011 0.824,0.039 1.086,0.039 0.25,0 0.75,-0.028 1.074,-0.039 v 0.297 c -0.5,0 -0.738,0 -0.75,0.289 v 1.824 c 0,0.824 0,1.125 -0.297,1.469 -0.133,0.152 -0.449,0.347 -1.008,0.347 -0.699,0 -1.14,-0.406 -1.41,-1 v 1 l -1.355,-0.105 v -0.289 c 0.671,0 0.75,-0.067 0.75,-0.539 z"
         style="fill:#000000;fill-opacity:1;fill-rule:nonzero;stroke:none"
         id="path2969" />
      <path
         d="m 178,77.415 -0.047,-0.039 -0.047,-0.027 -0.051,-0.04 -0.035,-0.039 -0.05,-0.039 -0.075,-0.074 -0.039,-0.031 -0.039,-0.039 -0.039,-0.035 -0.027,-0.032 -0.067,-0.066 -0.031,-0.039 -0.058,-0.059 -0.02,-0.027 -0.027,-0.027 -0.02,-0.032 -0.027,-0.027 -0.02,-0.027 -0.019,-0.032 -0.02,-0.019 -0.008,-0.027 -0.019,-0.02 -0.012,-0.019 -0.019,-0.02 -0.008,-0.02 -0.012,-0.019 -0.008,-0.008 -0.008,-0.019 -0.011,-0.008 c -0.434,-0.664 -0.508,-1.258 -0.508,-1.278 0,-0.105 0.113,-0.105 0.191,-0.105 0.164,0 0.172,0.008 0.211,0.191 0.223,0.93 0.789,1.739 1.864,2.168 0.113,0.039 0.144,0.059 0.144,0.125 0,0.067 -0.059,0.098 -0.078,0.106 -0.414,0.164 -1.574,0.644 -1.938,2.246 -0.031,0.117 -0.039,0.144 -0.203,0.144 -0.078,0 -0.191,0 -0.191,-0.113 0,-0.019 0.086,-0.625 0.488,-1.258 0.192,-0.289 0.473,-0.625 0.883,-0.933 h -7.113 c -0.172,0 -0.344,0 -0.344,-0.192 0,-0.191 0.172,-0.191 0.344,-0.191 z"
         style="fill:#000000;fill-opacity:1;fill-rule:nonzero;stroke:none"
         id="path2971" />
      <path
         d="m 186.805,77.474 v 0.144 l -0.012,0.066 v 0.059 l -0.008,0.133 -0.019,0.113 -0.02,0.117 -0.027,0.106 -0.031,0.105 -0.036,0.098 -0.039,0.094 -0.078,0.172 -0.047,0.078 -0.058,0.078 -0.047,0.066 -0.059,0.059 -0.058,0.054 -0.059,0.059 -0.055,0.047 -0.066,0.051 -0.059,0.047 -0.066,0.039 -0.07,0.027 -0.067,0.039 -0.066,0.02 -0.078,0.027 -0.133,0.039 -0.067,0.012 -0.066,0.008 -0.078,0.011 h -0.137 c -1.304,0 -2.57,-1.363 -2.57,-2.707 0,-0.894 0.574,-1.613 1.555,-1.613 l 0.019,0.199 c -0.578,0 -0.863,0.434 -0.863,1.047 0,0.473 0.25,1.5 0.555,1.988 0.453,0.7 0.968,0.883 1.296,0.883 0.95,0 0.95,-1.258 0.95,-2.008 0,-0.343 0,-0.902 0.019,-1.062 -0.844,-0.742 -1.574,-0.848 -1.957,-0.848 l -0.019,-0.199 c 0.605,0 1.285,0.211 2.015,0.797 0.125,-0.512 0.442,-0.797 0.875,-0.797 0.508,0 0.797,0.516 0.797,0.672 0,0.066 -0.051,0.094 -0.105,0.094 -0.071,0 -0.098,-0.028 -0.125,-0.094 -0.176,-0.473 -0.52,-0.473 -0.539,-0.473 -0.297,0 -0.297,0.75 -0.297,0.981 0,0.203 0,0.218 0.093,0.336 0.903,1.121 1.106,2.238 1.106,2.246 0,0.019 -0.02,0.097 -0.113,0.097 -0.098,0 -0.098,-0.031 -0.145,-0.203 -0.176,-0.605 -0.492,-1.336 -0.941,-1.89 z"
         style="fill:#000000;fill-opacity:1;fill-rule:nonzero;stroke:none"
         id="path2973" />
      <path
         d="m 219.91,3.962 h 0.895 c 0.191,0 0.285,0 0.285,0.191 0,0.098 -0.094,0.098 -0.266,0.098 h -0.836 c 0.336,1.363 0.383,1.555 0.383,1.609 0,0.164 -0.113,0.25 -0.277,0.25 -0.031,0 -0.289,-0.008 -0.375,-0.336 l -0.375,-1.523 h -0.903 c -0.191,0 -0.289,0 -0.289,-0.184 0,-0.105 0.078,-0.105 0.27,-0.105 h 0.844 c -0.692,-2.719 -0.727,-2.879 -0.727,-3.055 0,-0.516 0.363,-0.871 0.883,-0.871 0.969,0 1.516,1.391 1.516,1.469 0,0.094 -0.079,0.094 -0.114,0.094 -0.09,0 -0.097,-0.028 -0.144,-0.133 -0.414,-1 -0.914,-1.231 -1.239,-1.231 -0.203,0 -0.3,0.125 -0.3,0.442 0,0.23 0.019,0.3 0.058,0.461 z"
         style="fill:#000000;fill-opacity:1;fill-rule:nonzero;stroke:none"
         id="path2975" />
    </g>
  </g>
</svg>
