<?xml version="1.0" encoding="UTF-8" standalone="no"?>
<svg
   xmlns:osb="http://www.openswatchbook.org/uri/2009/osb"
   xmlns:dc="http://purl.org/dc/elements/1.1/"
   xmlns:cc="http://creativecommons.org/ns#"
   xmlns:rdf="http://www.w3.org/1999/02/22-rdf-syntax-ns#"
   xmlns:svg="http://www.w3.org/2000/svg"
   xmlns="http://www.w3.org/2000/svg"
   xmlns:sodipodi="http://sodipodi.sourceforge.net/DTD/sodipodi-0.dtd"
   xmlns:inkscape="http://www.inkscape.org/namespaces/inkscape"
   preserveAspectRatio="xMinYMin meet"
   width="100%"
   height="100%"
   viewBox="0 0 393.58698 82.774602"
   version="1.1"
   id="svg2"
   inkscape:version="0.48.4 r9939"
   sodipodi:docname="MainComponents.pdf"
   inkscape:export-filename="D:\Dokumente\Vortraege\GMA_2013\img\Liniensuche.png"
   inkscape:export-xdpi="499.80151"
   inkscape:export-ydpi="499.80151">
  <sodipodi:namedview
     pagecolor="#ffffff"
     bordercolor="#666666"
     borderopacity="1"
     objecttolerance="10"
     gridtolerance="10"
     guidetolerance="10"
     inkscape:pageopacity="0"
     inkscape:pageshadow="2"
     inkscape:window-width="2560"
     inkscape:window-height="1378"
     id="namedview227"
     showgrid="true"
     units="cm"
     inkscape:document-units="cm"
     inkscape:zoom="3.1462886"
     inkscape:cx="31.795844"
     inkscape:cy="-19.296449"
     inkscape:window-x="1912"
     inkscape:window-y="-8"
     inkscape:window-maximized="1"
     inkscape:current-layer="g4311"
     inkscape:snap-global="false"
     inkscape:snap-bbox="true"
     inkscape:bbox-paths="true"
     inkscape:bbox-nodes="true"
     inkscape:snap-bbox-edge-midpoints="true"
     inkscape:snap-bbox-midpoints="true"
     inkscape:object-paths="true"
     inkscape:object-nodes="true"
     inkscape:snap-smooth-nodes="true"
     inkscape:snap-midpoints="true"
     inkscape:snap-object-midpoints="true"
     inkscape:snap-center="true"
     inkscape:snap-intersection-paths="true"
     fit-margin-top="0"
     fit-margin-left="0"
     fit-margin-right="0"
     fit-margin-bottom="0">
    <inkscape:grid
       snapvisiblegridlinesonly="true"
       enabled="true"
       visible="true"
       empspacing="5"
       units="cm"
       id="grid4200"
       type="xygrid"
       spacingx="0.2cm"
       spacingy="0.2cm"
       originx="-5.0543472cm"
       originy="-23.134375cm" />
  </sodipodi:namedview>
  <metadata
     id="metadata231">
    <rdf:RDF>
      <cc:Work
         rdf:about="">
        <dc:format>image/svg+xml</dc:format>
        <dc:type
           rdf:resource="http://purl.org/dc/dcmitype/StillImage" />
        <dc:title></dc:title>
      </cc:Work>
    </rdf:RDF>
  </metadata>
  <defs
     id="defs229"><inkscape:path-effect
   is_visible="true"
   id="path-effect7030"
   effect="spiro" />
<inkscape:path-effect
   is_visible="true"
   id="path-effect7026"
   effect="spiro" />
<inkscape:path-effect
   is_visible="true"
   id="path-effect7022"
   effect="spiro" />
<inkscape:path-effect
   is_visible="true"
   id="path-effect7018"
   effect="spiro" />
<marker
   inkscape:stockid="TriangleInL"
   orient="auto"
   refY="0"
   refX="0"
   id="TriangleInL"
   style="overflow:visible">
  <path
     id="path9833"
     d="m 5.77,0 -8.65,5 0,-10 8.65,5 z"
     style="fill-rule:evenodd;stroke:#000000;stroke-width:1pt;marker-start:none"
     transform="scale(-0.8,-0.8)"
     inkscape:connector-curvature="0" />
</marker>
<linearGradient
   id="linearGradient9686">
  <stop
     id="stop9688"
     offset="0"
     style="stop-color:#bfbfbf;stop-opacity:1;" />
  <stop
     id="stop9690"
     offset="1"
     style="stop-color:#bfbfbf;stop-opacity:0;" />
</linearGradient>
<linearGradient
   osb:paint="solid"
   id="linearGradient9666">
  <stop
     id="stop9668"
     offset="0"
     style="stop-color:#bfbfbf;stop-opacity:1;" />
</linearGradient>
<inkscape:path-effect
   effect="spiro"
   id="path-effect5932"
   is_visible="true" />
<inkscape:path-effect
   effect="spiro"
   id="path-effect5928"
   is_visible="true" />
<marker
   style="overflow:visible"
   id="TriangleOutM"
   refX="0"
   refY="0"
   orient="auto"
   inkscape:stockid="TriangleOutM">
  <path
     transform="scale(0.4,0.4)"
     style="fill-rule:evenodd;stroke:#000000;stroke-width:1pt;marker-start:none"
     d="m 5.77,0 -8.65,5 0,-10 8.65,5 z"
     id="path4353"
     inkscape:connector-curvature="0" />
</marker>
<marker
   style="overflow:visible"
   id="TriangleInM"
   refX="0"
   refY="0"
   orient="auto"
   inkscape:stockid="TriangleInM">
  <path
     transform="scale(-0.4,-0.4)"
     style="fill-rule:evenodd;stroke:#000000;stroke-width:1pt;marker-start:none"
     d="m 5.77,0 -8.65,5 0,-10 8.65,5 z"
     id="path4344"
     inkscape:connector-curvature="0" />
</marker>
<marker
   style="overflow:visible"
   id="Arrow2Mstart"
   refX="0"
   refY="0"
   orient="auto"
   inkscape:stockid="Arrow2Mstart">
  <path
     transform="scale(0.6,0.6)"
     d="M 8.7185878,4.0337352 -2.2072895,0.01601326 8.7185884,-4.0017078 c -1.7454984,2.3720609 -1.7354408,5.6174519 -6e-7,8.035443 z"
     style="font-size:12px;fill-rule:evenodd;stroke-width:0.625;stroke-linejoin:round"
     id="path4231"
     inkscape:connector-curvature="0" />
</marker>
<marker
   style="overflow:visible"
   id="Arrow2Lstart"
   refX="0"
   refY="0"
   orient="auto"
   inkscape:stockid="Arrow2Lstart">
  <path
     transform="matrix(1.1,0,0,1.1,1.1,0)"
     d="M 8.7185878,4.0337352 -2.2072895,0.01601326 8.7185884,-4.0017078 c -1.7454984,2.3720609 -1.7354408,5.6174519 -6e-7,8.035443 z"
     style="font-size:12px;fill-rule:evenodd;stroke-width:0.625;stroke-linejoin:round"
     id="path4225"
     inkscape:connector-curvature="0" />
</marker>
<clipPath
   id="ID000001">
  <rect
     id="rect11"
     height="320.90601"
     width="406.875"
     y="29.531"
     x="68.25" />
</clipPath>
<marker
   style="overflow:visible"
   id="TriangleInM-4"
   refX="0"
   refY="0"
   orient="auto"
   inkscape:stockid="TriangleInM">
  <path
     transform="scale(-0.4,-0.4)"
     style="fill-rule:evenodd;stroke:#000000;stroke-width:1pt;marker-start:none"
     d="m 5.77,0 -8.65,5 0,-10 8.65,5 z"
     id="path4344-0"
     inkscape:connector-curvature="0" />
</marker>
<marker
   style="overflow:visible"
   id="TriangleOutM-9"
   refX="0"
   refY="0"
   orient="auto"
   inkscape:stockid="TriangleOutM">
  <path
     transform="scale(0.4,0.4)"
     style="fill-rule:evenodd;stroke:#000000;stroke-width:1pt;marker-start:none"
     d="m 5.77,0 -8.65,5 0,-10 8.65,5 z"
     id="path4353-4"
     inkscape:connector-curvature="0" />
</marker>
<marker
   style="overflow:visible"
   id="TriangleInM-5"
   refX="0"
   refY="0"
   orient="auto"
   inkscape:stockid="TriangleInM">
  <path
     transform="scale(-0.4,-0.4)"
     style="fill-rule:evenodd;stroke:#000000;stroke-width:1pt;marker-start:none"
     d="m 5.77,0 -8.65,5 0,-10 8.65,5 z"
     id="path4344-02"
     inkscape:connector-curvature="0" />
</marker>
<marker
   style="overflow:visible"
   id="TriangleOutM-8"
   refX="0"
   refY="0"
   orient="auto"
   inkscape:stockid="TriangleOutM">
  <path
     transform="scale(0.4,0.4)"
     style="fill-rule:evenodd;stroke:#000000;stroke-width:1pt;marker-start:none"
     d="m 5.77,0 -8.65,5 0,-10 8.65,5 z"
     id="path4353-6"
     inkscape:connector-curvature="0" />
</marker>
<clipPath
   id="ID000001-0">
  <rect
     id="rect11-2"
     height="320.90601"
     width="406.875"
     y="29.531"
     x="68.25" />
</clipPath>
<inkscape:path-effect
   effect="spiro"
   id="path-effect5932-1"
   is_visible="true" />
<clipPath
   id="ID000001-4">
  <rect
     id="rect11-0"
     height="320.90601"
     width="406.875"
     y="29.531"
     x="68.25" />
</clipPath>
<marker
   style="overflow:visible"
   id="TriangleInM-5-5"
   refX="0"
   refY="0"
   orient="auto"
   inkscape:stockid="TriangleInM">
  <path
     transform="scale(-0.4,-0.4)"
     style="fill-rule:evenodd;stroke:#000000;stroke-width:1pt;marker-start:none"
     d="m 5.77,0 -8.65,5 0,-10 8.65,5 z"
     id="path4344-02-1"
     inkscape:connector-curvature="0" />
</marker>
<inkscape:path-effect
   effect="spiro"
   id="path-effect5932-1-1"
   is_visible="true" />
<inkscape:path-effect
   effect="spiro"
   id="path-effect5932-2"
   is_visible="true" />
<marker
   style="overflow:visible"
   id="TriangleOutM-8-5"
   refX="0"
   refY="0"
   orient="auto"
   inkscape:stockid="TriangleOutM">
  <path
     transform="scale(0.4,0.4)"
     style="fill-rule:evenodd;stroke:#000000;stroke-width:1pt;marker-start:none"
     d="m 5.77,0 -8.65,5 0,-10 8.65,5 z"
     id="path4353-6-0"
     inkscape:connector-curvature="0" />
</marker>
<marker
   style="overflow:visible"
   id="TriangleInM-5-8"
   refX="0"
   refY="0"
   orient="auto"
   inkscape:stockid="TriangleInM">
  <path
     transform="scale(-0.4,-0.4)"
     style="fill-rule:evenodd;stroke:#000000;stroke-width:1pt;marker-start:none"
     d="m 5.77,0 -8.65,5 0,-10 8.65,5 z"
     id="path4344-02-3"
     inkscape:connector-curvature="0" />
</marker>
<marker
   style="overflow:visible"
   id="TriangleOutM-8-4"
   refX="0"
   refY="0"
   orient="auto"
   inkscape:stockid="TriangleOutM">
  <path
     transform="scale(0.4,0.4)"
     style="fill-rule:evenodd;stroke:#000000;stroke-width:1pt;marker-start:none"
     d="m 5.77,0 -8.65,5 0,-10 8.65,5 z"
     id="path4353-6-9"
     inkscape:connector-curvature="0" />
</marker>
<inkscape:path-effect
   effect="spiro"
   id="path-effect5932-1-2"
   is_visible="true" />
<inkscape:path-effect
   effect="spiro"
   id="path-effect5932-6"
   is_visible="true" />
<marker
   style="overflow:visible"
   id="TriangleInM-5-8-9"
   refX="0"
   refY="0"
   orient="auto"
   inkscape:stockid="TriangleInM">
  <path
     transform="scale(-0.4,-0.4)"
     style="fill-rule:evenodd;stroke:#000000;stroke-width:1pt;marker-start:none"
     d="m 5.77,0 -8.65,5 0,-10 8.65,5 z"
     id="path4344-02-3-4"
     inkscape:connector-curvature="0" />
</marker>
<marker
   style="overflow:visible"
   id="TriangleInM-5-8U"
   refX="0"
   refY="0"
   orient="auto"
   inkscape:stockid="TriangleInM-5-8U">
  <path
     transform="scale(-0.4,-0.4)"
     style="fill:#e05c49;fill-rule:evenodd;stroke:#e05c49;stroke-width:1pt;marker-start:none"
     d="m 5.77,0 -8.65,5 0,-10 8.65,5 z"
     id="path16011"
     inkscape:connector-curvature="0" />
</marker>
<marker
   style="overflow:visible"
   id="TriangleInM-5-8A"
   refX="0"
   refY="0"
   orient="auto"
   inkscape:stockid="TriangleInM-5-8A">
  <path
     transform="scale(-0.4,-0.4)"
     style="fill:#e05c49;fill-rule:evenodd;stroke:#e05c49;stroke-width:1pt;marker-start:none"
     d="m 5.77,0 -8.65,5 0,-10 8.65,5 z"
     id="path17053"
     inkscape:connector-curvature="0" />
</marker>
<marker
   style="overflow:visible"
   id="TriangleInM-5-8UQ"
   refX="0"
   refY="0"
   orient="auto"
   inkscape:stockid="TriangleInM-5-8UQ">
  <path
     transform="scale(-0.4,-0.4)"
     style="fill:#000000;fill-rule:evenodd;stroke:#000000;stroke-width:1pt;marker-start:none"
     d="m 5.77,0 -8.65,5 0,-10 8.65,5 z"
     id="path6338"
     inkscape:connector-curvature="0" />
</marker>
<marker
   style="overflow:visible"
   id="TriangleInM-5-8AT"
   refX="0"
   refY="0"
   orient="auto"
   inkscape:stockid="TriangleInM-5-8AT">
  <path
     transform="scale(-0.4,-0.4)"
     style="fill:#000000;fill-rule:evenodd;stroke:#000000;stroke-width:1pt;marker-start:none"
     d="m 5.77,0 -8.65,5 0,-10 8.65,5 z"
     id="path6981"
     inkscape:connector-curvature="0" />
</marker>
<marker
   style="overflow:visible"
   id="TriangleInM-5-8AT-1"
   refX="0"
   refY="0"
   orient="auto"
   inkscape:stockid="TriangleInM-5-8AT">
  <path
     transform="scale(-0.4,-0.4)"
     style="fill:#000000;fill-rule:evenodd;stroke:#000000;stroke-width:1pt;marker-start:none"
     d="m 5.77,0 -8.65,5 0,-10 8.65,5 z"
     id="path6981-7"
     inkscape:connector-curvature="0" />
</marker>
<marker
   style="overflow:visible"
   id="TriangleInM-5-8AT-4"
   refX="0"
   refY="0"
   orient="auto"
   inkscape:stockid="TriangleInM-5-8AT">
  <path
     transform="scale(-0.4,-0.4)"
     style="fill:#000000;fill-rule:evenodd;stroke:#000000;stroke-width:1pt;marker-start:none"
     d="m 5.77,0 -8.65,5 0,-10 8.65,5 z"
     id="path6981-0"
     inkscape:connector-curvature="0" />
</marker>

























































































</defs>
  <desc
     id="desc4">Matlab Figure Converted by PLOT2SVG written by Juerg Schwizer</desc>
  <g
     id="g4311"
     transform="translate(-179.09105,-149.86565)">
    <path
       sodipodi:nodetypes="cccccccc"
       inkscape:connector-curvature="0"
       id="path7032"
       d="m 236.31457,197.31612 27.56641,0 0,-5.38376 10.02416,8.41319 -10.02416,8.09075 0,-5.5601 -27.56641,0 z"
       style="fill:#000000;fill-opacity:1;stroke:#000000;stroke-width:0.99999994px;stroke-linecap:butt;stroke-linejoin:miter;stroke-opacity:1" />
    <path
       style="fill:#000000;fill-opacity:1;stroke:#000000;stroke-width:0.99999994px;stroke-linecap:butt;stroke-linejoin:miter;stroke-opacity:1"
       d="m 471.93454,197.31395 27.56641,0 0,-5.38786 10.02416,8.41959 -10.02416,8.09691 0,-5.56433 -27.56641,0 z"
       id="path9443"
       inkscape:connector-curvature="0"
       sodipodi:nodetypes="cccccccc" />
    <rect
       style="fill:#bfbfbf;fill-opacity:1;fill-rule:nonzero;stroke:#000000;stroke-width:0.99212599;stroke-miterlimit:4;stroke-opacity:1;stroke-dasharray:none"
       id="rect4766"
       width="176.03729"
       height="63.919701"
       x="284.90118"
       y="168.22449" />
    <path
       style="font-style:normal;font-variant:normal;font-weight:normal;font-stretch:normal;letter-spacing:normal;word-spacing:normal;text-anchor:start;fill:#000000;fill-opacity:1;fill-rule:evenodd;stroke:#000000;stroke-width:0;stroke-linecap:butt;stroke-linejoin:miter;stroke-miterlimit:10.43299961;stroke-opacity:1;stroke-dasharray:none;stroke-dashoffset:0"
       inkscape:connector-curvature="0"
       id="path3948"
       d="m 294.85983,179.29234 0,-0.12 -0.012,-0.12 -0.012,-0.12 -0.024,-0.108 -0.024,-0.12 -0.036,-0.108 -0.036,-0.108 -0.036,-0.096 -0.048,-0.108 -0.06,-0.096 -0.048,-0.096 -0.06,-0.096 -0.072,-0.096 -0.072,-0.084 -0.072,-0.084 -0.072,-0.084 -0.084,-0.072 -0.084,-0.072 -0.084,-0.072 -0.096,-0.06 -0.096,-0.06 -0.096,-0.06 -0.096,-0.048 -0.108,-0.048 -0.108,-0.048 -0.096,-0.036 -0.12,-0.024 -0.108,-0.024 -0.108,-0.024 -0.12,-0.012 -0.108,-0.012 -0.12,0 c -1.296,0 -2.34,1.056 -2.34,2.316 0,1.26 1.044,2.316 2.34,2.316 1.248,0 2.316,-1.044 2.316,-2.316 z" />
    <path
       style="font-style:normal;font-variant:normal;font-weight:normal;font-stretch:normal;letter-spacing:normal;word-spacing:normal;text-anchor:start;fill:#000000;fill-opacity:1;fill-rule:evenodd;stroke:#000000;stroke-width:0;stroke-linecap:butt;stroke-linejoin:miter;stroke-miterlimit:10.43299961;stroke-opacity:1;stroke-dasharray:none;stroke-dashoffset:0"
       inkscape:connector-curvature="0"
       id="path3982"
       d="m 294.85983,192.99634 0,-0.12 -0.012,-0.12 -0.012,-0.12 -0.024,-0.108 -0.024,-0.108 -0.036,-0.12 -0.036,-0.108 -0.036,-0.096 -0.048,-0.108 -0.06,-0.096 -0.048,-0.096 -0.06,-0.096 -0.072,-0.096 -0.072,-0.084 -0.072,-0.084 -0.072,-0.084 -0.084,-0.072 -0.084,-0.072 -0.084,-0.072 -0.096,-0.06 -0.096,-0.06 -0.096,-0.06 -0.096,-0.048 -0.108,-0.048 -0.108,-0.048 -0.096,-0.036 -0.12,-0.024 -0.108,-0.024 -0.108,-0.024 -0.12,-0.012 -0.108,-0.012 -0.12,0 c -1.296,0 -2.34,1.056 -2.34,2.316 0,1.26 1.044,2.316 2.34,2.316 1.248,0 2.316,-1.044 2.316,-2.316 z" />
    <path
       style="font-style:normal;font-variant:normal;font-weight:normal;font-stretch:normal;letter-spacing:normal;word-spacing:normal;text-anchor:start;fill:#000000;fill-opacity:1;fill-rule:evenodd;stroke:#000000;stroke-width:0;stroke-linecap:butt;stroke-linejoin:miter;stroke-miterlimit:10.43299961;stroke-opacity:1;stroke-dasharray:none;stroke-dashoffset:0"
       inkscape:connector-curvature="0"
       id="path4042"
       d="m 294.85983,206.70034 0,-0.12 -0.012,-0.12 -0.012,-0.108 -0.024,-0.12 -0.024,-0.108 -0.036,-0.108 -0.036,-0.108 -0.036,-0.108 -0.048,-0.108 -0.06,-0.096 -0.048,-0.096 -0.06,-0.096 -0.072,-0.096 -0.072,-0.084 -0.072,-0.084 -0.072,-0.084 -0.084,-0.072 -0.084,-0.072 -0.084,-0.072 -0.096,-0.06 -0.096,-0.06 -0.096,-0.06 -0.096,-0.048 -0.108,-0.048 -0.108,-0.036 -0.096,-0.048 -0.12,-0.024 -0.108,-0.024 -0.108,-0.024 -0.12,-0.012 -0.108,-0.012 -0.12,0 c -1.296,0 -2.34,1.056 -2.34,2.316 0,1.26 1.044,2.316 2.34,2.316 1.248,0 2.316,-1.044 2.316,-2.316 z" />
    <path
       style="font-style:normal;font-variant:normal;font-weight:normal;font-stretch:normal;letter-spacing:normal;word-spacing:normal;text-anchor:start;fill:#000000;fill-opacity:1;fill-rule:evenodd;stroke:#000000;stroke-width:0;stroke-linecap:butt;stroke-linejoin:miter;stroke-miterlimit:10.43299961;stroke-opacity:1;stroke-dasharray:none;stroke-dashoffset:0"
       inkscape:connector-curvature="0"
       id="path4068"
       d="m 294.85983,220.40434 0,-0.12 -0.012,-0.12 -0.012,-0.108 -0.024,-0.12 -0.024,-0.108 -0.036,-0.108 -0.036,-0.108 -0.036,-0.108 -0.048,-0.108 -0.06,-0.096 -0.048,-0.096 -0.06,-0.096 -0.072,-0.084 -0.072,-0.096 -0.072,-0.084 -0.072,-0.072 -0.084,-0.084 -0.084,-0.072 -0.084,-0.072 -0.096,-0.06 -0.096,-0.06 -0.096,-0.06 -0.096,-0.048 -0.108,-0.048 -0.108,-0.036 -0.096,-0.036 -0.12,-0.036 -0.108,-0.024 -0.108,-0.024 -0.12,-0.012 -0.108,-0.012 -0.12,0 c -1.296,0 -2.34,1.056 -2.34,2.316 0,1.272 1.044,2.316 2.34,2.316 1.248,0 2.316,-1.032 2.316,-2.316 z" />
    <text
       sodipodi:linespacing="125%"
       id="text3167"
       y="182.79912"
       x="300.48572"
       style="font-size:12px;font-style:normal;font-variant:normal;font-weight:normal;font-stretch:normal;text-align:start;line-height:125%;letter-spacing:0px;word-spacing:0px;writing-mode:lr-tb;text-anchor:start;fill:#000000;fill-opacity:1;fill-rule:evenodd;stroke:none;font-family:Serif;-inkscape-font-specification:Serif"
       xml:space="preserve"><tspan
         y="182.79912"
         x="300.48572"
         id="tspan3169"
         sodipodi:role="line">Initializing</tspan></text>
    <text
       sodipodi:linespacing="125%"
       id="text3167-1"
       y="196.50313"
       x="300.57947"
       style="font-size:12px;font-style:normal;font-variant:normal;font-weight:normal;font-stretch:normal;text-align:start;line-height:125%;letter-spacing:0px;word-spacing:0px;writing-mode:lr-tb;text-anchor:start;fill:#000000;fill-opacity:1;fill-rule:evenodd;stroke:none;font-family:Serif;-inkscape-font-specification:Serif"
       xml:space="preserve"><tspan
         y="196.50313"
         x="300.57947"
         id="tspan3192"
         sodipodi:role="line">Running optimization algorithm</tspan></text>
    <text
       sodipodi:linespacing="125%"
       id="text3167-1-4"
       y="210.20711"
       x="300.48572"
       style="font-size:12px;font-style:normal;font-variant:normal;font-weight:normal;font-stretch:normal;text-align:start;line-height:125%;letter-spacing:0px;word-spacing:0px;writing-mode:lr-tb;text-anchor:start;fill:#000000;fill-opacity:1;fill-rule:evenodd;stroke:none;font-family:Serif;-inkscape-font-specification:Serif"
       xml:space="preserve"><tspan
         y="210.20711"
         x="300.48572"
         id="tspan3215"
         sodipodi:role="line">Integration</tspan></text>
    <text
       sodipodi:linespacing="125%"
       id="text3167-1-4-9"
       y="223.91112"
       x="300.67023"
       style="font-size:12px;font-style:normal;font-variant:normal;font-weight:normal;font-stretch:normal;text-align:start;line-height:125%;letter-spacing:0px;word-spacing:0px;writing-mode:lr-tb;text-anchor:start;fill:#000000;fill-opacity:1;fill-rule:evenodd;stroke:none;font-family:Serif;-inkscape-font-specification:Serif"
       xml:space="preserve"><tspan
         id="tspan3215-4"
         sodipodi:role="line"
         x="300.67023"
         y="223.91112">Setting options / parameters</tspan></text>
    <text
       sodipodi:linespacing="125%"
       id="text3167-8"
       y="157.9926"
       x="347.56339"
       style="font-size:12px;font-style:normal;font-variant:normal;font-weight:normal;font-stretch:normal;text-align:start;line-height:125%;letter-spacing:0px;word-spacing:0px;writing-mode:lr-tb;text-anchor:start;fill:#000000;fill-opacity:1;fill-rule:evenodd;stroke:none;font-family:Serif;-inkscape-font-specification:Serif"
       xml:space="preserve"><tspan
         y="157.9926"
         x="347.56339"
         id="tspan3259"
         sodipodi:role="line">GRAMPC</tspan></text>
    <text
       sodipodi:linespacing="125%"
       id="text3167-8-2"
       y="204.26833"
       x="519.73859"
       style="font-size:12px;font-style:normal;font-variant:normal;font-weight:normal;font-stretch:normal;text-align:start;line-height:125%;letter-spacing:0px;word-spacing:0px;writing-mode:lr-tb;text-anchor:start;fill:#000000;fill-opacity:1;fill-rule:evenodd;stroke:none;font-family:Serif;-inkscape-font-specification:Serif"
       xml:space="preserve"><tspan
         sodipodi:role="line"
         id="tspan3307"
         x="519.73859"
         y="204.26833">Executable</tspan></text>
    <text
       sodipodi:linespacing="125%"
       id="text3167-8-5"
       y="203.06714"
       x="179.0266"
       style="font-size:12px;font-style:normal;font-variant:normal;font-weight:normal;font-stretch:normal;text-align:start;line-height:125%;letter-spacing:0px;word-spacing:0px;writing-mode:lr-tb;text-anchor:start;fill:#000000;fill-opacity:1;fill-rule:evenodd;stroke:none;font-family:Serif;-inkscape-font-specification:Serif"
       xml:space="preserve"><tspan
         sodipodi:role="line"
         id="tspan3305"
         x="179.0266"
         y="203.06714">User input</tspan></text>
  </g>
</svg>
